<svg width="44" height="25" viewBox="0 0 44 25" fill="none" xmlns="http://www.w3.org/2000/svg">
<g id="Frame" clip-path="url(#clip0_833_26132)">
<g id="Group">
<g id="Group_2">
<g id="Group_3">
<path id="Vector" d="M32.906 19.5505C32.906 22.5598 35.3893 24.9998 38.4531 24.9998C41.5165 24.9998 44.0002 22.5603 44.0002 19.5505C44.0002 16.5411 41.5169 14.1011 38.4531 14.1011C35.3897 14.1011 32.906 16.5411 32.906 19.5505ZM34.937 19.5505C34.937 17.643 36.511 16.0963 38.4531 16.0963C40.3948 16.0963 41.9692 17.6426 41.9692 19.5505C41.9692 21.4579 40.3952 23.0046 38.4531 23.0046C36.5114 23.0046 34.937 21.4583 34.937 19.5505Z" fill="black"/>
<g id="Group_4">
<path id="Vector_2" d="M38.4526 15.9602C36.4342 15.9602 34.798 17.5676 34.798 19.5505C34.798 21.5334 36.4342 23.1408 38.4526 23.1408C40.4711 23.1408 42.1073 21.5334 42.1073 19.5505C42.1073 17.5676 40.4711 15.9602 38.4526 15.9602ZM38.4526 22.7772C36.6387 22.7772 35.1681 21.3325 35.1681 19.5505C35.1681 17.7685 36.6387 16.3238 38.4526 16.3238C40.2666 16.3238 41.7372 17.7685 41.7372 19.5505C41.7372 21.3325 40.2666 22.7772 38.4526 22.7772Z" fill="#808285"/>
</g>
</g>
<path id="Vector_3" d="M38.4531 22.2072C39.9468 22.2072 41.1576 21.0177 41.1576 19.5504C41.1576 18.0831 39.9468 16.8936 38.4531 16.8936C36.9595 16.8936 35.7487 18.0831 35.7487 19.5504C35.7487 21.0177 36.9595 22.2072 38.4531 22.2072Z" fill="#307D7E"/>
<path id="Vector_4" d="M38.4525 21.017C39.2769 21.017 39.9452 20.3604 39.9452 19.5506C39.9452 18.7407 39.2769 18.0842 38.4525 18.0842C37.6281 18.0842 36.9598 18.7407 36.9598 19.5506C36.9598 20.3604 37.6281 21.017 38.4525 21.017Z" fill="white"/>
<path id="Vector_5" d="M39.6608 17.1756C39.6174 18.6055 38.4264 19.7525 36.9605 19.7525C36.5261 19.7525 36.1167 19.6492 35.7528 19.4705C35.7962 18.0406 36.9872 16.8936 38.4531 16.8936C38.8875 16.8936 39.2969 16.9969 39.6608 17.1756Z" fill="#939598"/>
</g>
<g id="Group_5">
<g id="Group_6">
<path id="Vector_6" d="M9.44798 14.1013C6.38462 14.1013 3.90088 16.5409 3.90088 19.5507C3.90088 22.5601 6.3842 25.0001 9.44798 25.0001C12.5113 25.0001 14.9951 22.5605 14.9951 19.5507C14.9951 16.5413 12.5113 14.1013 9.44798 14.1013ZM9.44798 23.0049C7.50631 23.0049 5.93185 21.4586 5.93185 19.5507C5.93185 17.6432 7.50589 16.0965 9.44798 16.0965C11.3897 16.0965 12.9641 17.6428 12.9641 19.5507C12.9641 21.4586 11.3897 23.0049 9.44798 23.0049Z" fill="black"/>
<g id="Group_7">
<path id="Vector_7" d="M9.44752 15.9604C7.42906 15.9604 5.79285 17.5678 5.79285 19.5507C5.79285 21.5336 7.42906 23.141 9.44752 23.141C11.466 23.141 13.1022 21.5336 13.1022 19.5507C13.1022 17.5678 11.466 15.9604 9.44752 15.9604ZM9.44752 22.7774C7.63353 22.7774 6.16299 21.3328 6.16299 19.5507C6.16299 17.7687 7.63353 16.3241 9.44752 16.3241C11.2615 16.3241 12.732 17.7687 12.732 19.5507C12.732 21.3328 11.2615 22.7774 9.44752 22.7774Z" fill="#808285"/>
</g>
</g>
<path id="Vector_8" d="M9.44802 22.2075C10.9417 22.2075 12.1525 21.018 12.1525 19.5506C12.1525 18.0833 10.9417 16.8938 9.44802 16.8938C7.95437 16.8938 6.74353 18.0833 6.74353 19.5506C6.74353 21.018 7.95437 22.2075 9.44802 22.2075Z" fill="#307D7E"/>
<path id="Vector_9" d="M9.44738 21.0172C10.2718 21.0172 10.94 20.3607 10.94 19.5508C10.94 18.741 10.2718 18.0845 9.44738 18.0845C8.623 18.0845 7.95471 18.741 7.95471 19.5508C7.95471 20.3607 8.623 21.0172 9.44738 21.0172Z" fill="black"/>
<path id="Vector_10" d="M8.24072 17.1758C8.28412 18.6057 9.47508 19.7527 10.941 19.7527C11.3754 19.7527 11.7848 19.6494 12.1487 19.4707C12.1053 18.0408 10.9143 16.8938 9.44837 16.8938C9.01397 16.8938 8.6046 16.9971 8.24072 17.1758Z" fill="#939598"/>
</g>
<g id="Group_8">
<path id="Vector_11" d="M31.666 11.6046L28.6786 8.10694C28.245 7.59902 27.6045 7.30591 26.9297 7.30591H26.1515C23.959 7.30591 21.9063 8.36233 20.6582 10.1333C19.8198 11.3229 18.4403 12.033 16.9672 12.033C16.3 12.033 15.6678 11.7411 15.2421 11.2364L14.5006 10.3575C14.0457 9.81845 13.3701 9.50648 12.6574 9.50648H6.16345V17.015H31.666V11.6046Z" fill="#EBEBEB"/>
<path id="Vector_12" d="M12.6569 9.5061C13.3696 9.5061 14.0452 9.81807 14.5001 10.3576L15.2412 11.2365C15.6669 11.7411 16.2995 12.0334 16.9663 12.0334C18.4394 12.0334 19.8185 11.3234 20.6573 10.1337C20.8038 9.92589 20.9623 9.7287 21.1301 9.54095C21.4243 9.6873 21.4439 10.1341 21.3529 10.6355C21.0182 12.4823 19.4041 13.8294 17.4992 13.9605C14.0252 14.2004 9.64988 12.0654 9.64988 12.0654L8.85034 9.50651H12.6569V9.5061Z" fill="black"/>
</g>
<path id="Vector_13" d="M8.42565 17.7124H12.7346C12.9379 17.7124 13.1027 17.5504 13.1027 17.3508V14.1381C13.1027 13.9015 13.3301 13.7285 13.5634 13.788L15.0043 14.1557C16.5704 14.5554 18.2179 14.5246 19.7673 14.0667L23.5993 12.9345C26.0639 12.2064 28.0072 10.3362 28.7997 7.9311L29.4652 5.91008C29.8571 4.72042 30.985 3.91406 32.2582 3.91406C32.481 3.91406 32.6525 4.10674 32.6229 4.3236L30.2218 21.9959C30.178 22.2685 29.9389 22.4693 29.6576 22.4693H21.0697C20.291 22.4693 19.5178 22.3394 18.7833 22.0856L16.5562 21.3153C15.9849 21.1178 15.384 21.0169 14.7785 21.0169H8.42565C7.49675 21.0169 6.74353 20.277 6.74353 19.3644C6.74353 18.4523 7.49675 17.7124 8.42565 17.7124Z" fill="black"/>
<g id="Group_9">
<path id="Vector_14" d="M3.81494 11.5933H8.72859L7.06776 4.45988C6.89291 3.70886 6.21314 3.17676 5.42904 3.17676H4.3858C4.07074 3.17676 3.81536 3.42764 3.81536 3.73715V11.5933H3.81494Z" fill="#EBEBEB"/>
<path id="Vector_15" d="M6.89792 10.279L5.24418 3.17676H5.42904C6.21314 3.17676 6.89291 3.70927 7.06776 4.45988L8.72859 11.5933H3.81494V10.279H6.89792Z" fill="black"/>
<path id="Vector_16" opacity="0.5" d="M6.65553 4.86532C6.48068 4.1143 5.80091 3.58219 5.01681 3.58219H3.84045C3.90931 3.34852 4.1263 3.17676 4.38586 3.17676H5.4291C6.21319 3.17676 6.89297 3.70927 7.06781 4.45988L8.72865 11.5933H8.22163L6.65553 4.86532Z" fill="white"/>
</g>
<g id="Group_10">
<path id="Vector_17" d="M38.4541 20.0233C38.5634 20.0233 38.6728 19.9873 38.7633 19.9127C38.967 19.745 38.9933 19.447 38.8226 19.2469L26.9101 5.30063C26.7394 5.10058 26.436 5.07475 26.2324 5.24242C26.0287 5.41009 26.0024 5.70812 26.1731 5.90858L38.0852 19.8549C38.1804 19.966 38.3168 20.0233 38.4541 20.0233Z" fill="black"/>
<g id="Group_11">
<g id="Group_12">
<path id="Vector_18" d="M25.927 6.55874L26.7791 6.04918C26.9602 5.94096 27.0174 5.70893 26.9072 5.53102C26.7971 5.3531 26.5609 5.29694 26.3798 5.40516L25.5277 5.91472C25.3466 6.02295 25.2894 6.25498 25.3996 6.43289C25.5101 6.6104 25.7463 6.66697 25.927 6.55874Z" fill="#808285"/>
<path id="Vector_19" d="M26.9054 5.52759C26.9062 5.52882 26.9071 5.52964 26.9079 5.53087C27.0181 5.70878 26.9609 5.94081 26.7798 6.04904L25.9277 6.5586C25.7466 6.66682 25.5104 6.61066 25.4002 6.43274C25.3994 6.43151 25.399 6.43028 25.3986 6.42905L26.9054 5.52759Z" fill="#414042"/>
</g>
<path id="Vector_20" d="M26.0037 6.49935C26.1512 6.34971 26.1473 6.11095 25.995 5.96606C25.8426 5.82118 25.5996 5.82503 25.4521 5.97466C25.3046 6.1243 25.3085 6.36306 25.4609 6.50795C25.6132 6.65284 25.8562 6.64899 26.0037 6.49935Z" fill="#414042"/>
<path id="Vector_21" d="M25.5235 6.35921C25.5924 6.4703 25.7401 6.50556 25.8532 6.43792C25.9663 6.37028 26.0022 6.22516 25.9333 6.11406C25.8645 6.00297 25.7167 5.96771 25.6036 6.03535C25.4906 6.103 25.4547 6.24811 25.5235 6.35921Z" fill="#808285"/>
</g>
</g>
<g id="Group_13">
<path id="Vector_22" d="M2.32743 15.4752H8.30059V10.4739H1.25415L2.32743 15.4752Z" fill="black"/>
<path id="Vector_23" d="M1.79126 12.9746H2.50609C2.81488 12.9746 3.06568 13.2206 3.06568 13.5243C3.06568 13.8277 2.8153 14.0741 2.50609 14.0741H2.02703L1.79126 12.9746Z" fill="#307D7E"/>
</g>
<path id="Vector_24" d="M2.96697 12.6021L10.7791 14.1012L9.23975 7.77416C9.05071 6.99731 8.34381 6.44922 7.53092 6.44922H1.46971C0.658074 6.44963 0 7.09611 0 7.89345V9.06302C0 10.7881 1.24354 12.2716 2.96697 12.6021Z" fill="#EBEBEB"/>
<g id="Group_14">
<g id="Group_15">
<path id="Vector_25" d="M38.4529 13.6709C40.1217 13.6709 41.6289 14.3432 42.7143 15.4255C42.7143 15.8403 42.3279 16.1449 41.9131 16.0666C41.5476 15.9973 41.1699 15.9608 40.7835 15.9608C38.899 15.9608 37.2185 16.8168 36.1219 18.154C35.2289 19.2433 33.9031 19.9029 32.4793 19.9029C32.4722 19.7864 32.4668 19.6692 32.4668 19.5511C32.4672 16.3031 35.1471 13.6709 38.4529 13.6709Z" fill="#EBEBEB"/>
<path id="Vector_26" opacity="0.5" d="M42.714 15.4249C42.714 15.4282 42.714 15.4319 42.714 15.4352C42.7073 15.8738 42.1585 16.0759 41.831 15.7779C41.1278 15.138 40.2682 14.6616 39.3147 14.4107C38.9754 14.3213 38.7375 14.0225 38.7375 13.6777C40.292 13.7495 41.6907 14.4046 42.714 15.4249Z" fill="white"/>
</g>
<path id="Vector_27" d="M32.4668 19.5511C32.4668 19.6696 32.4722 19.7864 32.4793 19.9029C32.958 19.9029 33.4245 19.8266 33.8681 19.6864C34.194 17.0935 35.8748 14.7716 38.4057 13.6721C35.1216 13.6971 32.4668 16.3191 32.4668 19.5511Z" fill="#939598"/>
</g>
<g id="Group_16">
<path id="Vector_28" d="M21.0498 19.9429C22.5444 19.9429 23.7559 18.7527 23.7559 17.2845C23.7559 15.8162 22.5444 14.626 21.0498 14.626C19.5552 14.626 18.3436 15.8162 18.3436 17.2845C18.3436 18.7527 19.5552 19.9429 21.0498 19.9429Z" fill="black"/>
<path id="Vector_29" d="M21.0498 15.0676C20.0412 15.0676 19.1436 15.5283 18.5586 16.2457C18.9705 15.2939 19.9307 14.6265 21.0498 14.6265C22.169 14.6265 23.1292 15.2939 23.5411 16.2457C22.956 15.5279 22.058 15.0676 21.0498 15.0676Z" fill="#808285"/>
<path id="Vector_30" d="M21.0492 19.1642C21.8308 19.1642 22.5265 18.8071 22.9796 18.2512C22.6604 18.9887 21.9164 19.5061 21.0492 19.5061C20.1821 19.5061 19.4376 18.9887 19.1184 18.2512C19.5716 18.8071 20.2676 19.1642 21.0492 19.1642Z" fill="#808285"/>
</g>
<path id="Vector_31" d="M30.9145 0L38.9395 8.12631C39.4019 8.59447 39.6602 9.22086 39.6602 9.87267C39.6602 10.6663 39.2779 11.4132 38.6294 11.8863L36.4349 13.4876C33.9895 15.2716 32.5478 18.0875 32.5478 21.0801C32.5478 21.5946 32.123 22.0119 31.5993 22.0119H25.0273C24.5624 22.0119 24.186 21.6417 24.186 21.1855C24.186 17.1779 25.9203 13.3592 28.9561 10.6827L31.0259 8.85806C31.7136 8.25175 31.9757 7.30519 31.6953 6.44021L30.2255 1.90665C29.9939 1.1913 30.2756 0.411993 30.9145 0Z" fill="#EBEBEB"/>
<path id="Vector_32" d="M31.4956 5.8253L30.2258 1.90665C29.9937 1.1913 30.2754 0.411993 30.9143 0L38.108 7.2847C36.0328 6.64109 33.8166 6.14505 31.4956 5.8253Z" fill="#EBEBEB"/>
<path id="Vector_33" d="M0 9.06336V8.91455H1.61285C4.71794 8.91455 7.44872 10.8405 8.47735 13.6596L2.96697 12.602C1.24354 12.2716 0 10.788 0 9.06336Z" fill="url(#paint0_linear_833_26132)"/>
<path id="Vector_34" opacity="0.5" d="M30.9281 11.301C31.1622 11.6856 31.4109 12.059 31.6588 12.4333L32.0373 12.9896C32.1629 13.1712 32.2664 13.3475 32.3381 13.5459C32.4784 13.9374 32.5188 14.3621 32.4274 14.763C32.4066 14.863 32.3774 14.9614 32.3436 15.0577L32.228 15.3689L31.9922 15.9961L31.7656 16.6262C31.6901 16.8385 31.6154 17.0562 31.5561 17.276C31.4405 17.7166 31.3483 18.1635 31.3074 18.6156C31.2599 19.067 31.2569 19.5216 31.2878 19.9713C31.3249 20.4174 31.3625 20.8613 31.418 21.3061C31.4543 20.8597 31.4706 20.4128 31.4906 19.9681C31.5073 19.527 31.554 19.0891 31.6271 18.6571C31.7039 18.2254 31.7994 17.7982 31.9321 17.3817C31.9976 17.1726 32.0673 16.9677 32.1454 16.7607L32.3807 16.1334L32.6073 15.5029L32.7204 15.1848C32.7588 15.0705 32.7926 14.9536 32.8105 14.8343C32.894 14.3592 32.8347 13.8619 32.6357 13.4274C32.5389 13.2114 32.4024 13.0052 32.2538 12.8322L31.8207 12.3152C31.5273 11.9742 31.2348 11.6323 30.9281 11.301Z" fill="white"/>
<path id="Vector_35" opacity="0.5" d="M36.1248 8.34375H32.1071L35.4371 9.82242C35.4371 9.82242 34.9568 9.18946 36.1248 8.34375Z" fill="white"/>
<g id="Group_17">
<g id="Group_18">
<path id="Vector_36" d="M14.9639 19.9585H16.4378C17.2865 19.9585 18.1291 20.0979 18.9311 20.3705L21.8597 21.3667C22.4527 21.5683 23.0669 21.6889 23.6904 21.7282C23.8606 21.7389 23.9925 21.8787 23.9925 22.0467C23.9925 22.2316 23.8331 22.3788 23.6453 22.3669C22.9643 22.3239 22.2937 22.1923 21.646 21.9717L18.7179 20.9756C17.9826 20.7255 17.2156 20.5984 16.4374 20.5984H14.9818C14.8053 20.5984 14.6472 20.4685 14.638 20.2955C14.6288 20.1114 14.7782 19.9585 14.9639 19.9585Z" fill="#A7A9AC"/>
<path id="Vector_37" opacity="0.5" d="M14.6452 20.2176C14.6748 20.0639 14.8213 19.9585 14.9803 19.9585H16.4383C17.2871 19.9585 18.13 20.0979 18.9321 20.3709L21.8602 21.3671C22.4173 21.5565 22.9928 21.6749 23.577 21.7213C23.577 21.9094 23.4088 22.0562 23.2189 22.0312C22.7574 21.9709 22.303 21.8651 21.8602 21.7143L18.9317 20.7181C18.1296 20.4451 17.2871 20.3061 16.4383 20.3061H14.9644C14.8497 20.3061 14.7495 20.3643 14.6915 20.4525C14.6485 20.3869 14.6281 20.3049 14.6452 20.2176Z" fill="white"/>
</g>
<g id="Group_19">
<path id="Vector_38" d="M3.83273 21.2468H12.8584V19.3283H3.83273V21.2468Z" fill="#BCBEC0"/>
<path id="Vector_39" d="M3.83273 21.2466H12.8584V20.2873H3.83273V21.2466Z" fill="#939598"/>
<path id="Vector_40" opacity="0.5" d="M3.83273 19.7917H12.8584V19.3285H3.83273V19.7917Z" fill="white"/>
</g>
<g id="Group_20">
<g id="Group_21">
<path id="Vector_41" d="M15.3675 20.6506L12.8571 21.2471V19.3281L15.3675 19.9246V20.6506Z" fill="#BCBEC0"/>
<path id="Vector_42" d="M15.3675 20.6506L12.8571 21.2471V20.2878H15.3675V20.6506Z" fill="#939598"/>
<path id="Vector_43" opacity="0.5" d="M15.3675 20.1L12.8571 19.7918V19.3281L15.3675 19.9246V20.1Z" fill="white"/>
</g>
<path id="Vector_44" d="M15.3675 20.6506L12.8571 21.2471V19.3281L15.3675 19.9246V20.6506Z" fill="#E6E7E8"/>
</g>
<g id="Group_22">
<g id="Group_23">
<path id="Vector_45" d="M2.81177 20.6506L3.83205 21.2471V19.3281L2.81177 19.9246V20.6506Z" fill="#BCBEC0"/>
<path id="Vector_46" d="M2.81177 20.6506L3.83205 21.2471V20.2878H2.81177V20.6506Z" fill="#939598"/>
<path id="Vector_47" opacity="0.5" d="M2.81177 20.1L3.83205 19.7918V19.3281L2.81177 19.9246V20.1Z" fill="white"/>
</g>
<path id="Vector_48" d="M2.81177 20.6506L3.83205 21.2471V19.3281L2.81177 19.9246V20.6506Z" fill="#BCBEC0"/>
</g>
</g>
<g id="Group_24">
<path id="Vector_49" d="M12.9587 19.1887H2.52586C2.14946 19.1887 1.80645 18.9759 1.64495 18.6418L1.04906 17.4104C0.897161 17.0963 0.948488 16.7241 1.17967 16.4613L3.61792 13.6913C4.54515 12.6382 5.8926 12.0327 7.30973 12.0327H11.7685C12.3778 12.0327 12.9545 12.3037 13.3367 12.7702L14.5214 14.2157C15.5313 15.448 15.5367 17.2033 14.5344 18.4414C14.1525 18.9136 13.5725 19.1887 12.9587 19.1887Z" fill="#EBEBEB"/>
<path id="Vector_50" d="M11.4677 15.4516L12.6524 16.8971C13.1869 17.5493 13.4369 18.3479 13.4081 19.1386C13.262 19.1714 13.1114 19.1886 12.9587 19.1886H2.52586C2.14946 19.1886 1.80645 18.9759 1.64495 18.6418L1.04906 17.4103C0.897161 17.0963 0.948488 16.7241 1.17967 16.4613L2.71782 14.7141H9.89947C10.5091 14.7141 11.0854 14.9851 11.4677 15.4516Z" fill="url(#paint1_linear_833_26132)"/>
</g>
<path id="Vector_51" opacity="0.5" d="M26.1515 7.30591H26.6685V7.32149C26.6685 7.69494 26.3538 7.98272 25.9741 7.9815C25.9716 7.9815 25.9691 7.9815 25.967 7.9815H25.1888C23.9807 7.9815 22.816 8.30371 21.8041 8.88829C23.0009 7.87983 24.5378 7.30591 26.1515 7.30591Z" fill="white"/>
<path id="Vector_52" opacity="0.5" d="M30.9147 0L38.9397 8.12631C39.402 8.59447 39.6603 9.22086 39.6603 9.87267C39.6603 10.158 39.6103 10.4368 39.5168 10.6991C39.4872 10.0904 39.2359 9.5111 38.802 9.07205C38.802 9.07246 30.3526 0.36198 30.9147 0Z" fill="white"/>
<path id="Vector_53" opacity="0.5" d="M28.9572 10.6828L31.027 8.85818C31.3191 8.60074 31.5336 8.28139 31.6629 7.93335C31.7101 8.63066 31.4338 9.32388 30.8893 9.80392L28.8195 11.6286C26.4117 13.7517 24.8239 16.5934 24.2693 19.6774C24.6461 16.2314 26.3049 13.0216 28.9572 10.6828Z" fill="white"/>
<g id="Group_25">
<path id="Vector_54" d="M39.1287 8.34375C39.4709 8.78034 39.6604 9.31696 39.6604 9.87325C39.6604 10.3902 39.4972 10.8866 39.2051 11.3011C37.4445 11.1543 36.1246 10.5468 36.1246 9.81914C36.1242 9.10174 37.4066 8.50158 39.1287 8.34375Z" fill="#E6E7E8"/>
<path id="Vector_55" d="M36.2014 10.1147C36.1526 10.0192 36.1246 9.92039 36.1246 9.81914C36.1246 9.10215 37.4066 8.50158 39.1287 8.34375C39.2114 8.44911 39.2848 8.56102 39.3491 8.67703C37.6165 8.86151 36.3266 9.42928 36.2014 10.1147Z" fill="#6D6E71"/>
</g>
<path id="Vector_56" opacity="0.5" d="M1.46928 6.44971H7.53007C8.34296 6.44971 9.04986 6.9978 9.2389 7.77464L10.1307 11.4395C9.75008 11.4395 9.41958 11.1829 9.33112 10.8197L8.6889 8.18008C8.49987 7.40324 7.79297 6.85514 6.98008 6.85514H0.449829C0.713977 6.60467 1.07327 6.44971 1.46928 6.44971Z" fill="white"/>
<path id="Vector_57" opacity="0.5" d="M12.6568 9.50635C13.3695 9.50635 14.0451 9.81831 14.5 10.3574L15.229 11.222C15.6663 11.7405 16.3181 12.0386 17.0037 12.0332C18.0908 12.0242 19.1244 11.629 19.9248 10.9399C19.0764 11.8881 17.8479 12.4407 16.546 12.4387C15.8816 12.4374 15.2524 12.1443 14.8284 11.6422L14.0873 10.7632C13.6324 10.2242 12.9568 9.91178 12.2437 9.91178H11.6302C11.4024 9.91178 11.2175 9.73018 11.2175 9.50635H12.6568Z" fill="white"/>
<path id="Vector_58" opacity="0.5" d="M14.2464 14.7562L13.0617 13.3108C12.6795 12.8446 12.1028 12.5733 11.4935 12.5733H5.05969C5.74698 12.2224 6.51772 12.033 7.31016 12.033H11.769C12.3782 12.033 12.9549 12.3039 13.3372 12.7704L14.5219 14.2159C15.4453 15.3424 15.5259 16.9055 14.7672 18.1116C15.2091 17.0052 15.0368 15.7208 14.2464 14.7562Z" fill="white"/>
</g>
</g>
<defs>
<linearGradient id="paint0_linear_833_26132" x1="4.23856" y1="9.05793" x2="4.23856" y2="11.4543" gradientUnits="userSpaceOnUse">
<stop stop-color="#F2F2F2"/>
<stop offset="1" stop-color="#EBEBEB"/>
</linearGradient>
<linearGradient id="paint1_linear_833_26132" x1="7.18632" y1="14.8493" x2="7.18632" y2="17.109" gradientUnits="userSpaceOnUse">
<stop stop-color="#F2F2F2"/>
<stop offset="1" stop-color="#EBEBEB"/>
</linearGradient>
<clipPath id="clip0_833_26132">
<rect width="44" height="25" fill="white"/>
</clipPath>
</defs>
</svg>
