<svg width="14" height="15" viewBox="0 0 14 15" fill="none" xmlns="http://www.w3.org/2000/svg">
<g id="vuesax/bold/call">
<g id="call">
<path id="Vector" d="M6.44579 9.22079L5.36663 10.3C5.13913 10.5275 4.77746 10.5275 4.54413 10.3058C4.47996 10.2416 4.41579 10.1833 4.35163 10.1191C3.75079 9.51246 3.20829 8.87663 2.72413 8.21163C2.24579 7.54663 1.86079 6.88163 1.58079 6.22246C1.30663 5.55746 1.16663 4.92163 1.16663 4.31496C1.16663 3.91829 1.23663 3.53913 1.37663 3.18913C1.51663 2.83329 1.73829 2.50663 2.04746 2.21496C2.42079 1.84746 2.82913 1.66663 3.26079 1.66663C3.42413 1.66663 3.58746 1.70163 3.73329 1.77163C3.88496 1.84163 4.01913 1.94663 4.12413 2.09829L5.47746 4.00579C5.58246 4.15163 5.65829 4.28579 5.71079 4.41413C5.76329 4.53663 5.79246 4.65913 5.79246 4.76996C5.79246 4.90996 5.75163 5.04996 5.66996 5.18413C5.59413 5.31829 5.48329 5.45829 5.34329 5.59829L4.89996 6.05913C4.83579 6.12329 4.80663 6.19913 4.80663 6.29246C4.80663 6.33913 4.81246 6.37996 4.82413 6.42663C4.84163 6.47329 4.85913 6.50829 4.87079 6.54329C4.97579 6.73579 5.15663 6.98663 5.41329 7.28996C5.67579 7.59329 5.95579 7.90246 6.25913 8.21163C6.31746 8.26996 6.38163 8.32829 6.43996 8.38663C6.67329 8.61413 6.67913 8.98746 6.44579 9.22079Z" fill="#8F95AB"/>
<path id="Vector_2" d="M12.8158 11.1924C12.8158 11.3558 12.7866 11.5249 12.7283 11.6883C12.7108 11.7349 12.6933 11.7816 12.67 11.8283C12.5708 12.0383 12.4425 12.2366 12.2733 12.4233C11.9875 12.7383 11.6725 12.9658 11.3166 13.1116C11.3108 13.1116 11.305 13.1174 11.2991 13.1174C10.955 13.2574 10.5816 13.3333 10.1791 13.3333C9.58414 13.3333 8.94831 13.1933 8.27748 12.9074C7.60664 12.6216 6.93581 12.2366 6.27081 11.7524C6.04331 11.5833 5.81581 11.4141 5.59998 11.2333L7.50748 9.32577C7.67081 9.44827 7.81664 9.54161 7.93914 9.60577C7.96831 9.61744 8.00331 9.63494 8.04414 9.65244C8.09081 9.66994 8.13748 9.67577 8.18998 9.67577C8.28914 9.67577 8.36498 9.64078 8.42914 9.57661L8.87248 9.13911C9.01831 8.99328 9.15831 8.88244 9.29248 8.81244C9.42664 8.73077 9.56081 8.68994 9.70664 8.68994C9.81747 8.68994 9.93414 8.71327 10.0625 8.76577C10.1908 8.81827 10.325 8.89411 10.4708 8.99328L12.4016 10.3641C12.5533 10.4691 12.6583 10.5916 12.7225 10.7374C12.7808 10.8833 12.8158 11.0291 12.8158 11.1924Z" fill="#8F95AB"/>
</g>
</g>
</svg>
