<svg width="18" height="18" viewBox="0 0 18 18" fill="none" xmlns="http://www.w3.org/2000/svg">
<g id="Layer_1">
<g id="XMLID_6_">
<path id="XMLID_107_" d="M16.2024 10.6762V9.84115H17.9979C17.9498 8.82236 17.7327 7.82654 17.3486 6.88083C16.9478 5.89127 16.3799 4.99148 15.6576 4.20025L15.4363 4.42154L15.215 4.64284L14.4237 5.42989L13.8329 4.83908L14.6221 4.05202L14.8434 3.83073L15.0647 3.60944C14.2755 2.8871 13.3757 2.32134 12.3862 1.92051C11.4363 1.53429 10.4384 1.31717 9.41333 1.27124V3.0562H8.57826V1.27124C7.5553 1.31717 6.55739 1.53637 5.60541 1.92051C4.61585 2.32134 3.71606 2.88919 2.92692 3.61152L3.14821 3.83282L3.36951 4.05411L4.15656 4.84325L3.56575 5.43407L2.7787 4.64492L2.5574 4.42363L2.34028 4.20025C1.61795 4.98939 1.0501 5.88918 0.649267 6.87874C0.265135 7.82654 0.0480165 8.82028 0 9.83906H1.7954V10.6741H0.00208764C0.0563672 11.672 0.313151 12.6762 0.768265 13.6658C1.26304 14.7409 1.9645 15.7409 2.84968 16.6365L2.94153 16.7305H15.2818L15.3736 16.6365C16.9749 15.0186 17.8976 12.9142 17.9979 10.6762H16.2024ZM8.99997 12.5113C8.25258 12.5113 7.64298 11.9017 7.64298 11.1543C7.64298 10.551 8.03755 10.0395 8.58243 9.86411V5.95807H9.4175V9.86411C9.96239 10.0395 10.357 10.553 10.357 11.1543C10.357 11.9038 9.74736 12.5113 8.99997 12.5113Z" fill="#307D7E"/>
<path id="XMLID_78_" d="M9.7309 11.1544C9.7309 11.5573 9.40314 11.8851 9.00022 11.8851C8.5973 11.8851 8.26953 11.5573 8.26953 11.1544C8.26953 10.7515 8.5973 10.4237 9.00022 10.4237C9.40314 10.4237 9.7309 10.7515 9.7309 11.1544Z" fill="#307D7E"/>
</g>
</g>
</svg>
