<svg width="23" height="19" viewBox="0 0 23 19" fill="none" xmlns="http://www.w3.org/2000/svg">
<g id="Frame" clip-path="url(#clip0_833_26102)">
<path id="Vector" d="M7.9938 8.33451L11.2046 2.85222L2.44299 1.70349C2.20245 1.67214 1.96925 1.79865 1.86421 2.02392L0.0615022 5.72853C-0.100438 6.06374 0.0714462 6.46022 0.41287 6.55754L7.31417 8.59511C7.59113 8.66972 7.85724 8.56159 7.9938 8.33451ZM22.3496 5.72853L20.5467 2.0232C20.4417 1.79793 20.2051 1.67149 19.9645 1.70302L11.2046 2.85222L14.4168 8.33451C14.5482 8.55979 14.8153 8.66832 15.0649 8.59623L21.9942 6.55938C22.3391 6.45662 22.5072 6.06014 22.3496 5.72853ZM14.9091 9.81953C14.3139 9.81953 13.7578 9.49697 13.456 8.98187L11.2046 5.15903L8.95669 8.9797C8.65206 9.49874 8.09884 9.82313 7.5036 9.82313C7.34603 9.82313 7.18847 9.80075 7.03966 9.75598L2.24096 8.34893V14.6963C2.24096 15.2251 2.59107 15.6821 3.09006 15.8075L10.6566 17.7474C11.0155 17.837 11.3877 17.837 11.7421 17.7474L19.3191 15.8075C19.7866 15.7091 20.1682 15.2514 20.1682 14.7287V8.34893L15.3713 9.75105C15.2242 9.7943 15.0667 9.81953 14.9091 9.81953Z" fill="#307D7E"/>
</g>
<defs>
<clipPath id="clip0_833_26102">
<rect width="22.4091" height="18.4545" fill="white" transform="translate(0 0.54541)"/>
</clipPath>
</defs>
</svg>
