<svg width="16" height="16" viewBox="0 0 16 16" fill="none" xmlns="http://www.w3.org/2000/svg">
<g id="Icon">
<path id="Icon_2" fill-rule="evenodd" clip-rule="evenodd" d="M3.625 4.25C2.79657 4.25 2.125 4.92157 2.125 5.75V11.75C2.125 12.5784 2.79657 13.25 3.625 13.25H12.625C13.4534 13.25 14.125 12.5784 14.125 11.75V5.75C14.125 4.92157 13.4534 4.25 12.625 4.25H11.4357C11.2367 4.25 11.046 4.17098 10.9053 4.03033L10.0643 3.18934C9.78304 2.90804 9.4015 2.75 9.00368 2.75H7.24632C6.8485 2.75 6.46697 2.90803 6.18566 3.18934L5.34467 4.03033C5.20402 4.17098 5.01325 4.25 4.81434 4.25H3.625ZM8.125 11C9.36764 11 10.375 9.99264 10.375 8.75C10.375 7.50736 9.36764 6.5 8.125 6.5C6.88236 6.5 5.875 7.50736 5.875 8.75C5.875 9.99264 6.88236 11 8.125 11Z" fill="#307D7E"/>
</g>
</svg>
