<svg width="81" height="81" viewBox="0 0 81 81" fill="none" xmlns="http://www.w3.org/2000/svg">
<g id="Camera">
<g id="Iconly/Light-Outline/Camera">
<g id="Camera_2">
<path id="Combined-Shape" d="M51.2544 11.225C53.2074 12.0023 54.5883 13.4034 55.8262 15.4575L56.2341 16.1664L57.7473 19.0681L57.7971 19.1491L57.8423 19.2196L57.9708 19.3953C58.6603 20.1465 59.8141 20.6003 60.5756 20.6003C67.5516 20.6003 73.2493 26.0789 73.5986 32.9662L73.6156 33.637V53.0279C73.6156 61.9688 66.5546 69.2651 57.7064 69.6429L56.9852 69.6583H23.3229C14.3798 69.6583 7.08558 62.5983 6.70787 53.7492L6.6925 53.0279V33.637C6.6925 26.438 12.5315 20.6003 19.7325 20.6003C20.4913 20.6003 21.6467 20.1459 22.3372 19.3953L22.361 19.3673L22.3908 19.3283L22.5629 19.0643L24.0718 16.1674C25.4168 13.7229 26.88 12.0888 29.0511 11.2247C33.0297 9.64267 47.279 9.64267 51.2544 11.225ZM30.9065 15.8884C30.1657 16.1833 29.495 16.8657 28.7792 18.0489L28.4693 18.587L27.1815 21.0768L26.8646 21.6505C26.6 22.0906 26.3353 22.4621 26.0331 22.7914C24.4925 24.466 22.2805 25.4332 20.3141 25.5952L19.7325 25.6196L19.1834 25.6381C15.1917 25.908 12.0002 29.0987 11.7302 33.0882L11.7117 33.637V53.0279C11.7117 59.226 16.5695 64.2911 22.6858 64.6219L23.3229 64.6391H56.9852C63.182 64.6391 68.2483 59.7794 68.5792 53.6648L68.5964 53.0279V33.637C68.5964 29.3948 65.2979 25.9203 61.1247 25.6381L60.5756 25.6196L59.993 25.5952C58.0237 25.4332 55.8116 24.4657 54.2729 22.7892C53.9747 22.4642 53.7115 22.0954 53.4485 21.659L53.3853 21.5508L53.31 21.4164L52.9215 20.6878L51.8376 18.5879C51.1058 17.2591 50.4356 16.447 49.712 16.0389L49.3983 15.8884L48.999 15.7557C45.5553 14.7823 33.5769 14.8266 30.9065 15.8884ZM40.153 30.7817C47.4149 30.7817 53.3001 36.6669 53.3001 43.9287C53.3001 51.1906 47.4149 57.0758 40.153 57.0758C32.8912 57.0758 27.006 51.1906 27.006 43.9287C27.006 36.6669 32.8912 30.7817 40.153 30.7817ZM40.153 35.8009C35.6632 35.8009 32.0252 39.4389 32.0252 43.9287C32.0252 48.4185 35.6632 52.0565 40.153 52.0565C44.6429 52.0565 48.2808 48.4185 48.2808 43.9287C48.2808 39.4389 44.6429 35.8009 40.153 35.8009ZM58.5723 28.4427C60.4203 28.4427 61.9184 29.9408 61.9184 31.7889C61.9184 33.5049 60.6267 34.9192 58.9625 35.1125L58.5723 35.135C56.6941 35.135 55.196 33.6369 55.196 31.7889C55.196 30.0728 56.4878 28.6585 58.1519 28.4652L58.5723 28.4427Z" fill="#4F4F4F"/>
</g>
</g>
</g>
</svg>
