<svg width="16" height="19" viewBox="0 0 16 19" fill="none" xmlns="http://www.w3.org/2000/svg">
<g id="Group">
<path id="Vector" d="M14.6667 14.6373C14.6667 13.8052 14.3155 13.0072 13.6904 12.4189C13.0652 11.8305 12.2174 11.5 11.3333 11.5H4.66666C3.78261 11.5 2.93476 11.8305 2.30964 12.4189C1.68452 13.0072 1.33333 13.8052 1.33333 14.6373C1.94276 17.0391 5.37624 18.1667 7.99999 18.1667C10.6237 18.1667 14.0572 17.0391 14.6667 14.6373Z" stroke="#111847" stroke-width="1.6" stroke-linecap="round" stroke-linejoin="round"/>
<path id="Vector_2" d="M7.99999 8.16667C9.84094 8.16667 11.3333 6.67428 11.3333 4.83333C11.3333 2.99238 9.84094 1.5 7.99999 1.5C6.15904 1.5 4.66666 2.99238 4.66666 4.83333C4.66666 6.67428 6.15904 8.16667 7.99999 8.16667Z" stroke="black" stroke-width="1.6" stroke-linecap="round" stroke-linejoin="round"/>
</g>
</svg>
