<svg width="24" height="24" viewBox="0 0 24 24" fill="none" xmlns="http://www.w3.org/2000/svg">
<g id="note-favorite">
<g id="vuesax/linear/note-favorite">
<g id="note-favorite_2">
<path id="Vector" d="M10 5H14C16 5 16 4 16 3C16 1 15 1 14 1H10C9 1 8 1 8 3C8 5 9 5 10 5Z" stroke="#8F95AB" stroke-width="1.5" stroke-miterlimit="10" stroke-linecap="round" stroke-linejoin="round"/>
<path id="Vector_2" d="M8 3.5C4.5 3.5 3 5.5 3 8.5V17C3 20 4.5 22 8 22H14.68C14.11 21.59 13.63 21.06 13.26 20.45C12.78 19.67 12.5 18.73 12.5 17.75C12.5 16.1 13.26 14.61 14.47 13.66C15.37 12.93 16.52 12.5 17.75 12.5C18.98 12.5 20.11 12.92 21 13.63V8.5C21 5.5 19.5 3.5 16 3.5" stroke="#8F95AB" stroke-width="1.5" stroke-miterlimit="10" stroke-linecap="round" stroke-linejoin="round"/>
<path id="Vector_3" d="M7 11H13" stroke="#8F95AB" stroke-width="1.5" stroke-miterlimit="10" stroke-linecap="round" stroke-linejoin="round"/>
<path id="Vector_4" d="M7 16H9.62" stroke="#8F95AB" stroke-width="1.5" stroke-miterlimit="10" stroke-linecap="round" stroke-linejoin="round"/>
<path id="Vector_5" d="M23 17.75C23 18.73 22.72 19.67 22.24 20.45C21.96 20.93 21.61 21.35 21.2 21.69C20.28 22.51 19.08 23 17.75 23C16.6 23 15.54 22.63 14.68 22C14.11 21.59 13.63 21.06 13.26 20.45C12.78 19.67 12.5 18.73 12.5 17.75C12.5 16.1 13.26 14.61 14.47 13.66C15.37 12.93 16.52 12.5 17.75 12.5C18.98 12.5 20.11 12.92 21 13.63C22.22 14.59 23 16.08 23 17.75Z" stroke="#8F95AB" stroke-width="1.5" stroke-miterlimit="10" stroke-linecap="round" stroke-linejoin="round"/>
<path id="Vector_6" d="M16 18L17 19L20 16" stroke="#8F95AB" stroke-width="1.5" stroke-linecap="round" stroke-linejoin="round"/>
</g>
</g>
</g>
</svg>
