<svg width="48" height="48" viewBox="0 0 48 48" fill="none" xmlns="http://www.w3.org/2000/svg">
<g id="check-circle" clip-path="url(#clip0_1421_28924)">
<g id="Group">
<path id="Vector" d="M24 45C18.4305 45 13.089 42.7875 9.15076 38.8492C5.21249 34.911 3 29.5695 3 24C3 18.4305 5.21249 13.089 9.15076 9.15076C13.089 5.21249 18.4305 3 24 3C29.5695 3 34.911 5.21249 38.8492 9.15076C42.7875 13.089 45 18.4305 45 24C45 29.5695 42.7875 34.911 38.8492 38.8492C34.911 42.7875 29.5695 45 24 45ZM24 48C30.3652 48 36.4697 45.4714 40.9706 40.9706C45.4714 36.4697 48 30.3652 48 24C48 17.6348 45.4714 11.5303 40.9706 7.02944C36.4697 2.52856 30.3652 0 24 0C17.6348 0 11.5303 2.52856 7.02944 7.02944C2.52856 11.5303 0 17.6348 0 24C0 30.3652 2.52856 36.4697 7.02944 40.9706C11.5303 45.4714 17.6348 48 24 48Z" fill="#307D7E"/>
<path id="Vector_2" d="M32.91 14.9099C32.8886 14.9306 32.8686 14.9526 32.85 14.9759L22.431 28.2509L16.152 21.9689C15.7255 21.5714 15.1613 21.3551 14.5784 21.3653C13.9955 21.3756 13.4394 21.6118 13.0271 22.024C12.6149 22.4362 12.3788 22.9924 12.3685 23.5753C12.3582 24.1582 12.5746 24.7223 12.972 25.1489L20.91 33.0899C21.1238 33.3033 21.3785 33.4715 21.6588 33.5844C21.939 33.6973 22.2391 33.7526 22.5412 33.747C22.8433 33.7414 23.1412 33.6751 23.4171 33.5518C23.693 33.4286 23.9412 33.2511 24.147 33.0299L36.123 18.0599C36.5308 17.6319 36.7537 17.0606 36.7437 16.4695C36.7336 15.8784 36.4913 15.315 36.0692 14.9011C35.647 14.4873 35.079 14.2562 34.4878 14.2578C33.8966 14.2595 33.3299 14.4937 32.91 14.9099Z" fill="#307D7E"/>
</g>
</g>
<defs>
<clipPath id="clip0_1421_28924">
<rect width="48" height="48" fill="white"/>
</clipPath>
</defs>
</svg>
