<svg width="203" height="202" viewBox="0 0 203 202" fill="none" xmlns="http://www.w3.org/2000/svg">
<g id="5464649_2853457 1">
<g id="Floor">
<path id="Floor_15_" d="M35.0238 168.875C70.882 187.208 129.019 187.209 164.877 168.876C200.735 150.542 200.735 120.818 164.877 102.485C129.019 84.1515 70.8812 84.1515 35.023 102.485C-0.834452 120.818 -0.834455 150.542 35.0238 168.875Z" fill="#F5F5F5"/>
</g>
<g id="Shadows">
<path id="Shadow_37_" d="M152.295 139.587C154.26 140.722 158.123 140.331 160.922 138.715L177.056 129.345C179.855 127.729 180.527 125.497 178.558 124.36C176.589 123.224 172.724 123.613 169.925 125.23L153.804 134.605C151.006 136.222 150.33 138.452 152.295 139.587Z" fill="#EBEBEB"/>
<path id="Shadow_36_" d="M55.1656 148.228L38.7551 138.753L55.1656 129.278V148.228Z" fill="#EBEBEB"/>
<path id="Shadow_35_" d="M101.548 153.897L75.0981 138.616L101.554 123.365L101.548 153.897Z" fill="#EBEBEB"/>
</g>
<g id="Plants">
<g id="Plants_14_">
<g id="XMLID_3252_">
<g id="XMLID_3255_">
<path id="XMLID_3276_" d="M32.9659 126.075C33.0119 122.236 30.3314 114.252 26.4081 109.22C22.4849 104.189 16.2661 100.469 11.7995 101.937C7.63909 103.305 8.02249 108.746 13.0062 112.408C17.99 116.071 25.4919 120.686 27.6274 126.939L32.174 134.634L32.9659 126.075Z" fill="#307D7E"/>
<path id="XMLID_3256_" opacity="0.1" d="M32.9659 126.075C33.0119 122.236 30.3314 114.252 26.4081 109.22C22.4849 104.189 16.2661 100.469 11.7995 101.937C7.63909 103.305 8.02249 108.746 13.0062 112.408C17.99 116.071 25.4919 120.686 27.6274 126.939L32.174 134.634L32.9659 126.075Z" fill="black"/>
</g>
<g id="XMLID_3253_">
<path id="XMLID_3254_" d="M33.186 131.331C33.064 131.32 32.9594 131.228 32.936 131.102C30.5233 117.969 20.0516 107.191 13.7355 104.761C13.5912 104.705 13.5189 104.543 13.5743 104.399C13.6292 104.255 13.7884 104.179 13.9367 104.237C20.3728 106.713 31.0384 117.668 33.4874 131.001C33.5157 131.153 33.4147 131.299 33.2624 131.327C33.237 131.332 33.2111 131.333 33.186 131.331Z" fill="white"/>
</g>
</g>
<g id="XMLID_3246_">
<g id="XMLID_3250_">
<path id="XMLID_3251_" d="M31.1313 139.694C30.5406 137.529 27.9478 133.937 23.7207 130.945C19.0444 127.634 13.0951 126.066 11.7498 123.517C10.1338 120.456 12.7327 117.612 17.569 118.271C22.4053 118.93 30.8424 125.641 32.0839 135.607L31.1313 139.694Z" fill="#307D7E"/>
</g>
<g id="XMLID_3247_">
<path id="XMLID_3249_" d="M32.0956 137.442C31.9894 137.432 31.8936 137.361 31.856 137.254C27.9728 125.98 19.4557 121.937 15.4952 121.374C15.3421 121.353 15.2355 121.21 15.2569 121.057C15.2787 120.903 15.4144 120.797 15.574 120.819C19.9538 121.441 28.4228 125.564 32.3865 137.071C32.437 137.217 32.3586 137.377 32.2124 137.428C32.174 137.441 32.134 137.445 32.0956 137.442Z" fill="white"/>
</g>
</g>
</g>
<g id="Plants_15_">
<g id="XMLID_3135_">
<path id="XMLID_3120_" d="M176.21 115.149C176.21 115.149 176.748 107.057 181.517 101.049C186.287 95.042 185.993 92.5683 182.705 91.3555C179.417 90.1427 171.779 97.3827 173.478 107.078C175.178 116.773 176.21 115.149 176.21 115.149Z" fill="#307D7E"/>
<path id="XMLID_3134_" opacity="0.1" d="M176.21 115.149C176.21 115.149 176.748 107.057 181.517 101.049C186.287 95.042 185.993 92.5683 182.705 91.3555C179.417 90.1427 171.779 97.3827 173.478 107.078C175.178 116.773 176.21 115.149 176.21 115.149Z" fill="black"/>
<g id="XMLID_3136_">
<path id="XMLID_3137_" d="M174.753 110.527C174.654 110.527 174.571 110.45 174.565 110.351C174.008 101.439 180.302 94.1268 182.658 92.472C182.742 92.4127 182.86 92.4329 182.92 92.5177C182.979 92.6025 182.959 92.7197 182.874 92.7795C180.564 94.4019 174.394 101.575 174.941 110.327C174.947 110.431 174.868 110.52 174.765 110.526C174.761 110.527 174.756 110.527 174.753 110.527Z" fill="white"/>
</g>
</g>
<g id="XMLID_3036_">
<g id="XMLID_3073_">
<path id="XMLID_3119_" d="M174.913 121.832C174.913 121.832 177.787 122.828 181.48 123.413C185.173 123.998 186.803 122.232 186.803 122.232C186.803 122.232 185.349 118.768 183.251 117.796C183.251 117.796 186.807 118.521 189.661 120.425C189.661 120.425 191.916 120.46 192.814 117.018C192.814 117.018 191.478 114.946 186.995 113.827C186.995 113.827 189.722 113.141 193.652 114.143C193.947 114.26 195.203 109.81 195.584 107.757C195.963 105.704 195.138 105.726 193.538 105.298C191.937 104.871 186.637 103.68 185.635 104.561C184.633 105.441 184.124 108.451 184.124 108.451C184.124 108.451 183.464 106.675 183.973 104.636C183.973 104.636 182.533 104.073 180.298 104.723C178.469 105.255 178.38 106.499 178.463 107.905C178.524 108.933 178.771 110.028 179.255 111.475C179.255 111.475 177.829 109.648 177.785 105.687C177.785 105.687 174.044 107.546 173.405 111.26C173.059 113.268 172.57 119.165 174.913 121.832Z" fill="#307D7E"/>
<g id="XMLID_3093_">
<path id="XMLID_3118_" d="M175.619 121.11C175.696 121.11 175.77 121.067 175.806 120.992C178.786 114.801 189.866 107.607 193.835 106.835C193.947 106.813 194.021 106.704 193.999 106.591C193.977 106.478 193.867 106.406 193.755 106.427C189.721 107.212 178.459 114.522 175.432 120.813C175.382 120.916 175.426 121.04 175.529 121.09C175.558 121.103 175.588 121.11 175.619 121.11Z" fill="white"/>
</g>
</g>
</g>
</g>
</g>
<g id="Computer_Screen">
<g id="XMLID_1118_">
<g id="XMLID_1204_">
<g id="XMLID_1203_">
<path id="Vector" d="M31.5195 142.557C31.0614 142.557 30.7875 142.178 30.7875 141.545V73.5882L114.009 25.54L114.01 93.223C114.01 94.2612 113.278 95.529 112.379 96.0485L32.1825 142.35C31.9478 142.485 31.7183 142.557 31.5195 142.557Z" fill="#FAFAFA"/>
<path id="Vector_2" d="M113.773 25.9493L113.773 93.223C113.773 94.1699 113.081 95.3702 112.261 95.8437L32.0645 142.145C31.8653 142.26 31.6771 142.321 31.5195 142.321C31.0723 142.321 31.0238 141.778 31.0238 141.545V73.7243L113.773 25.9493ZM114.245 25.1304L30.5515 73.4516V141.544C30.5515 142.336 30.9458 142.793 31.5195 142.793C31.7546 142.793 32.0201 142.716 32.3008 142.554L112.496 96.253C113.462 95.695 114.246 94.3384 114.246 93.223L114.245 25.1304Z" fill="#E0E0E0"/>
</g>
<path id="XMLID_2173_" d="M30.5515 73.4516V84.8218L114.245 36.5014L114.245 25.1304L30.5515 73.4516Z" fill="#307D7E"/>
<path id="XMLID_1167_" d="M37.1154 74.0583L37.1158 75.6888C37.1158 76.0221 37.3521 76.1583 37.6406 75.9918L63.3725 61.1355L63.3721 58.293L37.6402 73.1493C37.3513 73.3157 37.1154 73.725 37.1154 74.0583Z" fill="#FAFAFA"/>
<path id="XMLID_1189_" d="M66.1298 56.701C66.4194 56.5337 66.6546 56.6695 66.6546 57.004V58.6345C66.6546 58.9691 66.4194 59.3763 66.1298 59.5435L63.3725 61.1357L63.3721 58.2932L66.1298 56.701Z" fill="#455A64"/>
<path id="XMLID_2992_" d="M30.5515 69.787C30.5515 68.6711 31.3349 67.3149 32.3008 66.757L112.496 20.4557C113.462 19.8978 114.245 20.3503 114.245 21.4657V25.1304L30.5515 73.4517V69.787Z" fill="#455A64"/>
<g id="XMLID_1202_">
<path id="XMLID_1201_" d="M104.944 26.7191C104.491 26.9809 104.124 27.6172 104.124 28.1404C104.124 28.6635 104.491 28.876 104.944 28.6143C105.397 28.3525 105.765 27.7162 105.765 27.193C105.765 26.6694 105.397 26.4573 104.944 26.7191Z" fill="#307D7E"/>
<path id="XMLID_1198_" d="M107.543 25.2162C107.09 25.478 106.723 26.1143 106.723 26.6374C106.723 27.1606 107.09 27.3731 107.543 27.1113C107.997 26.8495 108.364 26.2132 108.364 25.6901C108.364 25.1665 107.997 24.9544 107.543 25.2162Z" fill="#307D7E"/>
<path id="XMLID_1196_" d="M110.143 23.7132C109.69 23.975 109.322 24.6113 109.322 25.1345C109.322 25.6581 109.69 25.8702 110.143 25.6084C110.596 25.3466 110.963 24.7103 110.963 24.1871C110.963 23.6635 110.596 23.4514 110.143 23.7132Z" fill="#307D7E"/>
</g>
<g id="XMLID_1168_" opacity="0.1">
<path id="XMLID_1187_" d="M87.9881 43.9047C86.9975 44.4768 86.1943 45.8677 86.1943 47.0119C86.1943 48.156 86.9975 48.6198 87.9881 48.0477C88.9787 47.4756 89.7819 46.0847 89.7819 44.9405C89.7819 43.7964 88.9787 43.3326 87.9881 43.9047Z" fill="black"/>
<path id="XMLID_1188_" d="M79.7829 48.642C78.7923 49.2141 77.9891 50.605 77.9891 51.7492C77.9891 52.8933 78.7923 53.3571 79.7829 52.785C80.7735 52.213 81.5767 50.822 81.5767 49.6778C81.5767 48.5337 80.7735 48.0699 79.7829 48.642Z" fill="black"/>
<path id="XMLID_1186_" d="M96.1934 39.1671C95.2028 39.7392 94.3997 41.1302 94.3997 42.2743C94.3997 43.4184 95.2028 43.8822 96.1934 43.3102C97.184 42.7381 97.9872 41.3471 97.9872 40.203C97.9872 39.0593 97.184 38.5955 96.1934 39.1671Z" fill="black"/>
<path id="XMLID_1190_" d="M104.399 34.4208C103.408 34.9929 102.605 36.3838 102.605 37.528C102.605 38.6721 103.408 39.1359 104.399 38.5638C105.39 37.9918 106.193 36.6008 106.193 35.4567C106.192 34.3125 105.39 33.8487 104.399 34.4208Z" fill="black"/>
</g>
</g>
<path id="XMLID_2170_" d="M38.8647 85.7071L58.3407 74.4626C59.3067 73.9047 60.09 74.3571 60.09 75.4726V94.1717C60.09 95.2872 59.3067 96.6438 58.3407 97.2017L38.8651 108.447C37.8991 109.005 37.1158 108.552 37.1158 107.437L37.1154 88.7371C37.1154 87.6217 37.8987 86.265 38.8647 85.7071Z" fill="#E0E0E0"/>
<path id="XMLID_3029_" d="M66.7645 69.5999L107.573 46.0378C108.539 45.4798 109.322 45.9323 109.322 47.0478V65.7469C109.322 66.8624 108.539 68.219 107.573 68.7769L66.7649 92.339C65.7989 92.8969 65.0155 92.4448 65.0155 91.329L65.0151 72.6295C65.0151 71.5144 65.7981 70.1578 66.7645 69.5999Z" fill="#E0E0E0"/>
<g id="XMLID_3030_">
<path id="XMLID_3117_" d="M38.865 114.131L69.8284 96.2548C70.7944 95.6969 71.5777 96.0932 71.5781 97.1396C71.5781 98.1859 70.7952 99.4864 69.8288 100.044L38.865 117.921C37.8991 118.479 37.1157 118.083 37.1157 117.037C37.1157 115.99 37.8987 114.689 38.865 114.131Z" fill="#E0E0E0"/>
<path id="XMLID_3095_" d="M38.865 120.763L69.8284 102.886C70.7944 102.328 71.5777 102.725 71.5781 103.771C71.5781 104.817 70.7952 106.118 69.8288 106.676L38.865 124.553C37.8991 125.111 37.1157 124.714 37.1157 123.668C37.1157 122.621 37.8987 121.321 38.865 120.763Z" fill="#E0E0E0"/>
<path id="XMLID_3094_" d="M38.865 127.394L69.8284 109.517C70.7944 108.96 71.5777 109.356 71.5781 110.402C71.5781 111.449 70.7952 112.749 69.8288 113.307L38.865 131.184C37.8991 131.742 37.1157 131.346 37.1157 130.299C37.1157 129.252 37.8987 127.952 38.865 127.394Z" fill="#E0E0E0"/>
</g>
</g>
</g>
<g id="Envelope">
<g id="XMLID_3248_">
<g id="Letter_2_">
<g id="XMLID_3260_">
<g id="XMLID_3261_">
<path id="XMLID_3262_" d="M53.5262 104.908C53.5262 104.239 53.9961 103.425 54.5758 103.09L108.272 72.0889C108.852 71.7544 109.791 71.754 110.371 72.0889L111.554 72.7721C112.134 73.1066 112.604 73.9207 112.604 74.5901V115.749C112.604 116.416 112.131 117.234 111.554 117.567L57.8579 148.569C57.2806 148.902 56.3361 148.902 55.7587 148.569L54.5758 147.886C53.9985 147.552 53.5262 146.734 53.5262 146.068V104.908Z" fill="#307D7E"/>
</g>
</g>
<path id="XMLID_3259_" opacity="0.4" d="M53.8324 103.874L56.8115 105.592L112.295 73.5556C112.107 73.228 111.844 72.9399 111.556 72.771L110.369 72.0907C109.792 71.753 108.849 71.753 108.273 72.0907L54.577 103.09C54.2841 103.258 54.0211 103.546 53.8324 103.874Z" fill="white"/>
<path id="XMLID_3258_" opacity="0.1" d="M53.5245 104.907V146.065C53.5245 146.735 53.9964 147.55 54.5774 147.882L55.7591 148.567C55.8483 148.617 55.9429 148.662 56.0471 148.697C56.1812 148.741 56.3251 148.776 56.479 148.796C56.7521 148.831 57.0401 148.821 57.3084 148.766C57.3779 148.751 57.4474 148.731 57.512 148.712C57.5569 148.697 57.5965 148.682 57.636 148.662C57.4425 148.731 57.2737 148.721 57.1347 148.652C56.9359 148.548 56.8119 148.309 56.8119 147.962V106.803C56.8119 106.372 57.0305 106.044 57.3581 105.91L56.8119 105.592L53.8328 103.874C53.6437 104.202 53.5245 104.574 53.5245 104.907Z" fill="black"/>
<path id="XMLID_3257_" opacity="0.2" d="M56.8115 105.592L81.6785 114.883C83.4513 115.543 85.4422 114.887 86.4752 113.304L90.4684 107.186L112.494 73.4414L91.2646 107.416L112.603 115.767C112.598 116.105 112.474 116.482 112.275 116.814L91.2049 107.511L86.5645 114.937C85.4971 116.641 83.3418 117.306 81.5048 116.492L78.2009 115.033L57.1347 148.652C56.936 148.548 56.8119 148.31 56.8119 147.962V147.277L78.0979 114.988L56.8115 105.592Z" fill="black"/>
</g>
</g>
</g>
<g id="Mobile_Screen">
<g id="XMLID_2171_">
<path id="XMLID_2869_" d="M101.117 58.3395V152.836C101.117 153.952 101.9 154.404 102.866 153.846L145.318 129.337C146.284 128.779 147.067 127.423 147.067 126.307V31.8105C147.067 30.695 146.284 30.2425 145.318 30.8005L102.866 55.3095C101.9 55.8675 101.117 57.2241 101.117 58.3395Z" fill="#FAFAFA" stroke="#E0E0E0" stroke-width="1.1698" stroke-miterlimit="10"/>
<path id="XMLID_2970_" d="M103.577 60.1007C103.577 59.8389 103.781 59.5092 104.032 59.3642L108.868 56.5734C109.119 56.4283 109.323 56.5229 109.323 56.7847C109.323 57.0461 109.119 57.3757 108.868 57.5208L104.033 60.312C103.781 60.4566 103.577 60.3621 103.577 60.1007Z" fill="#455A64"/>
<path id="XMLID_2972_" d="M103.577 61.9825C103.577 61.7207 103.781 61.3911 104.032 61.2461L108.868 58.4552C109.119 58.3102 109.323 58.4047 109.323 58.6665C109.323 58.9283 109.119 59.2576 108.868 59.4026L104.033 62.1938C103.781 62.3385 103.577 62.2439 103.577 61.9825Z" fill="#455A64"/>
<path id="XMLID_2973_" d="M103.577 63.8644C103.577 63.6026 103.781 63.2729 104.032 63.1279L108.868 60.3371C109.119 60.192 109.323 60.2866 109.323 60.5483C109.323 60.8101 109.119 61.1394 108.868 61.2844L104.033 64.0757C103.781 64.2203 103.577 64.1258 103.577 63.8644Z" fill="#455A64"/>
<path id="XMLID_2989_" d="M143.785 39.6325V38.8778C143.785 38.8326 143.752 38.8112 143.71 38.8297L143.129 39.0919C143.087 39.1105 143.045 39.0899 143.032 39.0471C142.998 38.94 142.954 38.8439 142.902 38.7586C142.878 38.7203 142.873 38.658 142.893 38.6176L143.281 37.8359C143.301 37.7955 143.285 37.7446 143.247 37.722L142.826 37.4792C142.787 37.4565 142.735 37.4687 142.71 37.5062L142.226 38.233C142.201 38.2706 142.145 38.2969 142.1 38.2956C142 38.2932 141.895 38.3033 141.785 38.3276C141.741 38.3373 141.702 38.311 141.698 38.2662L141.634 37.6315C141.63 37.5866 141.595 37.5684 141.555 37.5911L140.902 37.9684C140.863 37.991 140.828 38.0456 140.824 38.0904L140.758 38.8176C140.754 38.8625 140.724 38.9231 140.69 38.9534C140.563 39.0705 140.442 39.1994 140.327 39.3376C140.299 39.3723 140.241 39.3889 140.199 39.3739L139.779 39.2273C139.737 39.2123 139.684 39.2321 139.661 39.2709L139.181 40.1031C139.158 40.1423 139.168 40.1977 139.202 40.2272L139.539 40.5172C139.573 40.5467 139.587 40.6045 139.571 40.6465C139.509 40.8146 139.458 40.9843 139.42 41.1531C139.411 41.1972 139.373 41.2537 139.337 41.28L138.74 41.7002C138.703 41.726 138.673 41.7838 138.673 41.8286V42.5833C138.673 42.6285 138.706 42.65 138.747 42.6314L139.329 42.3692C139.37 42.3506 139.412 42.3712 139.426 42.414C139.46 42.5211 139.503 42.6172 139.556 42.7025C139.579 42.7409 139.584 42.8031 139.564 42.8435L139.177 43.6252C139.156 43.6656 139.172 43.7165 139.211 43.7391L139.632 43.9819C139.671 44.0046 139.723 43.9925 139.748 43.9549L140.231 43.2281C140.256 43.1905 140.313 43.1643 140.358 43.1651C140.457 43.1675 140.563 43.1574 140.672 43.1331C140.716 43.1234 140.755 43.1497 140.76 43.1946L140.823 43.8296C140.828 43.8745 140.863 43.8927 140.902 43.87L141.556 43.4927C141.595 43.4701 141.63 43.4155 141.634 43.3707L141.699 42.6435C141.703 42.5987 141.734 42.5381 141.767 42.5078C141.894 42.3906 142.016 42.2617 142.13 42.1235C142.159 42.0888 142.216 42.0722 142.258 42.0872L142.678 42.2334C142.72 42.2484 142.773 42.2286 142.796 42.1898L143.276 41.3576C143.299 41.3188 143.289 41.263 143.255 41.2335L142.918 40.9435C142.884 40.914 142.87 40.8562 142.886 40.8142C142.948 40.6461 142.999 40.4764 143.037 40.3076C143.047 40.2635 143.084 40.207 143.12 40.1807L143.718 39.7606C143.755 39.7351 143.785 39.6777 143.785 39.6325ZM141.229 42.0056C140.62 42.3575 140.125 42.0722 140.125 41.3681C140.125 40.6639 140.62 39.8078 141.229 39.4559C141.839 39.1041 142.333 39.3893 142.333 40.0934C142.333 40.7972 141.839 41.6533 141.229 42.0056Z" fill="#37474F"/>
<g id="XMLID_3074_">
<path id="XMLID_3091_" d="M124.092 58.257C129.052 55.393 133.073 57.7148 133.073 63.4423C133.073 69.1698 129.052 76.1344 124.092 78.9983C119.132 81.8623 115.111 79.5405 115.111 73.813C115.111 68.0851 119.132 61.1205 124.092 58.257Z" fill="#455A64"/>
<path id="XMLID_3076_" d="M124.029 62.7643C125.638 61.8351 126.943 62.5881 126.943 64.4461C126.943 66.3045 125.638 68.5641 124.029 69.4929C122.42 70.4217 121.115 69.669 121.115 67.8106C121.115 65.9526 122.42 63.6931 124.029 62.7643Z" fill="#307D7E"/>
<path id="XMLID_3075_" d="M129.772 72.6726C129.772 69.6196 127.628 68.3821 124.985 69.9089L123.332 70.8631C120.688 72.3894 118.545 76.1018 118.545 79.1544V79.987C119.022 80.1454 119.54 80.2238 120.088 80.225C121.294 80.2274 122.651 79.8303 124.092 78.9985C126.247 77.7541 128.224 75.7349 129.772 73.3808V72.6726Z" fill="#307D7E"/>
</g>
<path id="XMLID_3140_" d="M115.986 87.5202L132.199 78.1595C132.682 77.8808 133.073 78.0787 133.073 78.6019C133.073 79.1251 132.682 79.7755 132.199 80.0543L115.986 89.415C115.503 89.6937 115.111 89.4958 115.111 88.9726C115.111 88.4494 115.503 87.7994 115.986 87.5202Z" fill="#307D7E"/>
<path id="XMLID_3142_" d="M114.246 94.2157L133.939 82.8338C134.422 82.5551 134.814 82.7531 134.814 83.2762C134.814 83.7994 134.422 84.4499 133.939 84.7286L114.246 96.1105C113.763 96.3893 113.371 96.1913 113.371 95.6681C113.371 95.1449 113.763 94.4945 114.246 94.2157Z" fill="#455A64"/>
<path id="XMLID_3148_" d="M134.464 92.0089L139.978 88.825C140.268 88.6577 140.503 88.7341 140.503 88.9959C140.503 89.2576 140.268 89.6055 139.978 89.7728L134.464 92.9567C134.174 93.1239 133.939 93.0476 133.939 92.7858C133.939 92.524 134.174 92.1761 134.464 92.0089Z" fill="#37474F"/>
<g id="XMLID_3157_">
<path id="XMLID_3141_" d="M106.915 106.022L115.012 101.347C115.495 101.068 115.887 101.294 115.887 101.852V107.412C115.887 107.97 115.495 108.648 115.012 108.927L106.915 113.601C106.432 113.88 106.041 113.654 106.041 113.096V107.537C106.041 106.979 106.432 106.3 106.915 106.022Z" fill="#307D7E"/>
<path id="XMLID_3143_" d="M108.207 106.798L113.721 103.615C114.011 103.447 114.246 103.524 114.246 103.785C114.246 104.047 114.011 104.395 113.721 104.562L108.207 107.746C107.917 107.913 107.682 107.837 107.682 107.575C107.682 107.314 107.917 106.966 108.207 106.798Z" fill="#FAFAFA"/>
<path id="XMLID_3146_" d="M107.682 109.603V111.233C107.682 111.568 107.917 111.703 108.207 111.536L113.721 108.352C114.011 108.185 114.246 107.778 114.246 107.443V105.813C114.246 105.478 114.011 105.342 113.721 105.51L108.207 108.694C107.917 108.861 107.682 109.268 107.682 109.603Z" fill="#FAFAFA"/>
</g>
<g id="XMLID_3149_">
<path id="XMLID_3155_" d="M120.044 98.4416L128.141 93.7669C128.624 93.4881 129.015 93.714 129.015 94.2719V99.8317C129.015 100.39 128.624 101.068 128.141 101.347L120.044 106.021C119.56 106.3 119.169 106.074 119.169 105.516V99.9566C119.169 99.399 119.56 98.7207 120.044 98.4416Z" fill="#307D7E"/>
<path id="XMLID_3154_" d="M121.335 99.2188L126.849 96.0349C127.139 95.8677 127.374 95.944 127.374 96.2058C127.374 96.4676 127.139 96.8155 126.849 96.9827L121.335 100.167C121.046 100.334 120.81 100.258 120.81 99.9957C120.81 99.7339 121.045 99.3861 121.335 99.2188Z" fill="#FAFAFA"/>
<path id="XMLID_3153_" d="M120.81 102.023V103.653C120.81 103.987 121.046 104.123 121.335 103.956L126.849 100.772C127.139 100.605 127.374 100.198 127.374 99.8631L127.375 98.2325C127.375 97.898 127.139 97.7623 126.85 97.9295L121.335 101.113C121.045 101.281 120.81 101.688 120.81 102.023Z" fill="#FAFAFA"/>
</g>
<g id="XMLID_3159_">
<path id="XMLID_3176_" d="M133.172 90.862L141.269 86.1873C141.752 85.9085 142.144 86.1344 142.144 86.6923V92.2521C142.144 92.8101 141.752 93.4884 141.269 93.7671L133.172 98.4418C132.689 98.7206 132.297 98.4947 132.297 97.9368V92.377C132.297 91.8191 132.689 91.1407 133.172 90.862Z" fill="#307D7E"/>
<path id="XMLID_3173_" d="M134.464 91.6388L139.978 88.4548C140.268 88.2876 140.503 88.3639 140.503 88.6257C140.503 88.8875 140.268 89.2354 139.978 89.4026L134.464 92.5866C134.174 92.7538 133.939 92.6775 133.939 92.4157C133.939 92.1539 134.174 91.8064 134.464 91.6388Z" fill="#FAFAFA"/>
<path id="XMLID_3163_" d="M133.939 94.4433V96.0734C133.939 96.4079 134.174 96.5436 134.464 96.3764L139.978 93.1925C140.268 93.0252 140.503 92.618 140.503 92.2835V90.6529C140.503 90.3184 140.268 90.1827 139.978 90.3499L134.463 93.5339C134.174 93.7015 133.939 94.1087 133.939 94.4433Z" fill="#FAFAFA"/>
</g>
<path id="XMLID_3144_" d="M107.79 118.781L140.394 99.9569C141.361 99.399 142.144 99.7953 142.144 100.842C142.144 101.888 141.36 103.189 140.394 103.746L107.79 122.571C106.824 123.129 106.041 122.732 106.041 121.686C106.041 120.639 106.824 119.339 107.79 118.781Z" fill="#E0E0E0"/>
<path id="XMLID_3147_" d="M107.79 126.36L140.394 107.536C141.361 106.978 142.144 107.374 142.144 108.421C142.144 109.467 141.36 110.768 140.394 111.326L107.79 130.15C106.824 130.708 106.041 130.312 106.041 129.265C106.041 128.219 106.824 126.918 107.79 126.36Z" fill="#E0E0E0"/>
<path id="XMLID_3178_" d="M118.403 129.708L129.782 123.138C130.265 122.86 130.657 123.086 130.657 123.643V127.308C130.657 127.866 130.265 128.544 129.782 128.823L118.403 135.393C117.92 135.672 117.528 135.446 117.528 134.888V131.223C117.528 130.665 117.92 129.987 118.403 129.708Z" fill="#307D7E"/>
<g id="XMLID_3180_">
<path id="XMLID_3027_" d="M108.502 119.338C108.049 119.6 107.682 120.236 107.682 120.759C107.682 121.282 108.049 121.494 108.502 121.233C108.955 120.972 109.323 120.335 109.323 119.812C109.323 119.288 108.955 119.076 108.502 119.338Z" fill="#FAFAFA"/>
<path id="XMLID_3023_" d="M111.102 117.835C110.648 118.096 110.281 118.733 110.281 119.256C110.281 119.779 110.648 119.992 111.102 119.73C111.555 119.468 111.922 118.832 111.922 118.308C111.922 117.785 111.555 117.573 111.102 117.835Z" fill="#FAFAFA"/>
<path id="XMLID_3021_" d="M113.701 116.332C113.248 116.593 112.881 117.23 112.881 117.753C112.881 118.276 113.248 118.489 113.701 118.227C114.155 117.965 114.522 117.329 114.522 116.806C114.522 116.282 114.154 116.07 113.701 116.332Z" fill="#FAFAFA"/>
<path id="XMLID_2993_" d="M116.301 114.829C115.847 115.091 115.48 115.727 115.48 116.25C115.48 116.773 115.847 116.985 116.301 116.724C116.754 116.462 117.121 115.826 117.121 115.303C117.121 114.78 116.754 114.567 116.301 114.829Z" fill="#FAFAFA"/>
<path id="XMLID_2176_" d="M118.9 113.326C118.447 113.588 118.079 114.224 118.079 114.747C118.079 115.27 118.447 115.483 118.9 115.221C119.353 114.959 119.72 114.323 119.72 113.8C119.72 113.277 119.353 113.064 118.9 113.326Z" fill="#FAFAFA"/>
<path id="XMLID_2175_" d="M121.5 111.823C121.046 112.085 120.679 112.721 120.679 113.244C120.679 113.767 121.046 113.98 121.5 113.718C121.953 113.456 122.32 112.82 122.32 112.297C122.32 111.774 121.952 111.561 121.5 111.823Z" fill="#FAFAFA"/>
<path id="XMLID_2174_" d="M124.099 110.32C123.646 110.582 123.278 111.218 123.278 111.741C123.278 112.265 123.646 112.477 124.099 112.215C124.552 111.954 124.919 111.317 124.919 110.794C124.919 110.27 124.552 110.058 124.099 110.32Z" fill="#FAFAFA"/>
</g>
<g id="XMLID_2172_">
<path id="XMLID_3020_" d="M108.502 126.926C108.049 127.187 107.682 127.824 107.682 128.347C107.682 128.87 108.049 129.083 108.502 128.821C108.955 128.559 109.323 127.923 109.323 127.399C109.323 126.876 108.955 126.664 108.502 126.926Z" fill="#FAFAFA"/>
<path id="XMLID_3017_" d="M111.102 125.423C110.648 125.684 110.281 126.321 110.281 126.844C110.281 127.367 110.648 127.579 111.102 127.318C111.555 127.056 111.922 126.42 111.922 125.897C111.922 125.373 111.555 125.161 111.102 125.423Z" fill="#FAFAFA"/>
<path id="XMLID_3016_" d="M113.701 123.92C113.248 124.182 112.881 124.818 112.881 125.341C112.881 125.864 113.248 126.077 113.701 125.815C114.155 125.553 114.522 124.917 114.522 124.394C114.522 123.87 114.154 123.658 113.701 123.92Z" fill="#FAFAFA"/>
<path id="XMLID_3015_" d="M116.301 122.417C115.847 122.678 115.48 123.315 115.48 123.838C115.48 124.361 115.847 124.574 116.301 124.312C116.754 124.05 117.121 123.414 117.121 122.89C117.121 122.367 116.754 122.155 116.301 122.417Z" fill="#FAFAFA"/>
<path id="XMLID_3008_" d="M118.9 120.914C118.447 121.175 118.079 121.812 118.079 122.335C118.079 122.858 118.447 123.07 118.9 122.809C119.353 122.547 119.72 121.911 119.72 121.388C119.72 120.864 119.353 120.652 118.9 120.914Z" fill="#FAFAFA"/>
<path id="XMLID_2995_" d="M121.5 119.411C121.046 119.673 120.679 120.309 120.679 120.832C120.679 121.355 121.046 121.568 121.5 121.306C121.953 121.044 122.32 120.408 122.32 119.885C122.32 119.362 121.952 119.149 121.5 119.411Z" fill="#FAFAFA"/>
<path id="XMLID_2994_" d="M124.099 117.908C123.646 118.17 123.278 118.806 123.278 119.329C123.278 119.853 123.646 120.065 124.099 119.803C124.552 119.542 124.919 118.905 124.919 118.382C124.919 117.858 124.552 117.646 124.099 117.908Z" fill="#FAFAFA"/>
</g>
</g>
</g>
<g id="Key">
<g id="XMLID_1166_">
<g id="XMLID_1191_">
<g id="XMLID_1192_">
<path id="XMLID_2975_" d="M160.559 134.988C159.142 134.988 157.798 134.639 156.581 133.936C153.669 132.255 152 128.737 152 124.284C152 116.454 156.977 107.446 163.33 103.778C166.751 101.803 170.149 101.589 172.898 103.176C175.809 104.857 177.479 108.375 177.479 112.828C177.479 120.658 172.502 129.666 166.148 133.334C164.242 134.434 162.343 134.988 160.559 134.988ZM168.906 107.765C167.887 107.765 166.81 108.277 166.148 108.659C161.534 111.323 157.636 118.478 157.636 124.284C157.636 126.634 158.295 128.417 159.398 129.055C160.655 129.78 162.401 128.989 163.33 128.453C167.944 125.789 171.842 118.634 171.842 112.828C171.842 110.478 171.183 108.695 170.079 108.057C169.718 107.848 169.317 107.765 168.906 107.765Z" fill="#455A64"/>
</g>
<path id="XMLID_2986_" d="M172.851 114.082C172.851 109.683 170.079 108.057 170.079 108.057C171.183 108.695 171.842 110.478 171.842 112.828C171.842 118.633 167.944 125.789 163.33 128.453C162.401 128.989 160.655 129.781 159.399 129.055C159.399 129.055 161.737 130.507 164.968 128.744C169.646 126.192 172.851 119.887 172.851 114.082Z" fill="#37474F"/>
</g>
<path id="XMLID_2978_" d="M168.406 59.1025C168.406 57.493 167.101 56.1885 165.492 56.1885C163.882 56.1885 162.578 57.493 162.578 59.1025C162.578 59.1054 162.578 59.1078 162.578 59.1102H162.578V105.452C162.578 105.883 162.862 106.314 163.431 106.642C164.569 107.299 166.414 107.299 167.552 106.642C168.121 106.314 168.406 105.883 168.406 105.452V59.1106H168.406C168.405 59.1078 168.406 59.1054 168.406 59.1025Z" fill="#37474F"/>
<path id="XMLID_2974_" d="M166.078 69.4583C166.078 68.3852 165.324 67.0799 164.395 66.5434C163.923 66.2703 163.497 66.2513 163.191 66.4371L163.19 66.4347L155.999 70.5773L155.825 70.6808C155.8 70.6933 155.775 70.7058 155.755 70.7224C155.63 70.8052 155.514 70.9005 155.411 71.004C154.976 71.4346 154.707 72.0354 154.707 72.6943C154.707 73.5972 155.208 74.3846 155.946 74.7906C156.285 74.9729 156.671 75.0763 157.085 75.0763C157.495 75.0763 157.884 74.9729 158.22 74.7906C158.266 74.7656 158.311 74.7369 158.357 74.7119L165.593 70.5446L165.591 70.5426C165.892 70.3648 166.078 69.9907 166.078 69.4583Z" fill="#455A64"/>
<path id="XMLID_2971_" d="M166.078 81.0631C166.078 79.9901 165.324 78.6848 164.395 78.1482C163.923 77.8755 163.497 77.8562 163.191 78.042L163.19 78.0396L154.762 82.8791L154.588 82.9825C154.563 82.995 154.538 83.0076 154.518 83.0241C154.393 83.1069 154.277 83.2023 154.174 83.3057C153.739 83.7364 153.47 84.3371 153.47 84.996C153.47 85.899 153.971 86.6864 154.709 87.0924C155.048 87.2746 155.433 87.3784 155.848 87.3784C156.258 87.3784 156.647 87.275 156.983 87.0924C157.029 87.0674 157.074 87.0387 157.12 87.0136L165.593 82.1491L165.591 82.147C165.892 81.9701 166.078 81.5956 166.078 81.0631Z" fill="#455A64"/>
</g>
</g>
</g>
</svg>
