<svg width="25" height="24" viewBox="0 0 25 24" fill="none" xmlns="http://www.w3.org/2000/svg">
<g id="vuesax/linear/star">
<g id="star">
<g id="Group 1000006067">
<path id="Star 22" d="M11.7044 3.04494C12.1046 2.51933 12.8954 2.51933 13.2956 3.04494L14.5734 4.72315C14.8105 5.03451 15.2074 5.17897 15.5891 5.09284L17.6467 4.62861C18.2911 4.48321 18.897 4.99156 18.8657 5.65144L18.7658 7.75838C18.7473 8.14928 18.9585 8.51507 19.3062 8.69447L21.1809 9.66143C21.768 9.96429 21.9053 10.7431 21.4572 11.2285L20.0263 12.7783C19.7609 13.0658 19.6875 13.4818 19.8386 13.8428L20.6531 15.7885C20.9082 16.3979 20.5128 17.0828 19.8575 17.1666L17.7652 17.4341C17.377 17.4837 17.0535 17.7552 16.9372 18.1288L16.3105 20.1429C16.1142 20.7737 15.371 21.0442 14.8152 20.6871L13.0404 19.5472C12.7112 19.3357 12.2888 19.3357 11.9596 19.5472L10.1848 20.6871C9.62899 21.0442 8.88585 20.7737 8.68955 20.1429L8.06279 18.1288C7.94651 17.7552 7.62295 17.4837 7.23478 17.4341L5.1425 17.1666C4.48721 17.0828 4.09179 16.3979 4.34688 15.7885L5.16136 13.8428C5.31246 13.4818 5.23912 13.0658 4.97366 12.7783L3.54283 11.2285C3.0947 10.7431 3.23203 9.96429 3.81915 9.66143L5.69375 8.69447C6.04154 8.51507 6.25273 8.14928 6.2342 7.75838L6.13432 5.65145C6.10303 4.99156 6.70885 4.48321 7.35328 4.62861L9.41087 5.09284C9.79261 5.17897 10.1895 5.03451 10.4266 4.72315L11.7044 3.04494Z" fill="#2F80ED" stroke="#2F80ED" stroke-width="1.5"/>
<path id="Vector" d="M8.5 11.83L11.33 14.66L17 9" stroke="white" stroke-width="1.5" stroke-linecap="round" stroke-linejoin="round"/>
</g>
</g>
</g>
</svg>
