<svg width="50" height="50" viewBox="0 0 50 50" fill="none" xmlns="http://www.w3.org/2000/svg">
<g id="vuesax/bold/danger">
<g id="danger">
<path id="Vector" d="M45.3333 33.1666L32 9.16663C30.2083 5.93746 27.7291 4.16663 25 4.16663C22.2708 4.16663 19.7916 5.93746 18 9.16663L4.66662 33.1666C2.97912 36.2291 2.79162 39.1666 4.14579 41.4791C5.49995 43.7916 8.16662 45.0625 11.6666 45.0625H38.3333C41.8333 45.0625 44.5 43.7916 45.8541 41.4791C47.2083 39.1666 47.0208 36.2083 45.3333 33.1666ZM23.4375 18.75C23.4375 17.8958 24.1458 17.1875 25 17.1875C25.8541 17.1875 26.5625 17.8958 26.5625 18.75V29.1666C26.5625 30.0208 25.8541 30.7291 25 30.7291C24.1458 30.7291 23.4375 30.0208 23.4375 29.1666V18.75ZM26.4791 36.8958C26.375 36.9791 26.2708 37.0625 26.1666 37.1458C26.0416 37.2291 25.9166 37.2916 25.7916 37.3333C25.6666 37.3958 25.5416 37.4375 25.3958 37.4583C25.2708 37.4791 25.125 37.5 25 37.5C24.875 37.5 24.7291 37.4791 24.5833 37.4583C24.4583 37.4375 24.3333 37.3958 24.2083 37.3333C24.0833 37.2916 23.9583 37.2291 23.8333 37.1458C23.7291 37.0625 23.625 36.9791 23.5208 36.8958C23.1458 36.5 22.9166 35.9583 22.9166 35.4166C22.9166 34.875 23.1458 34.3333 23.5208 33.9375C23.625 33.8541 23.7291 33.7708 23.8333 33.6875C23.9583 33.6041 24.0833 33.5416 24.2083 33.5C24.3333 33.4375 24.4583 33.3958 24.5833 33.375C24.8541 33.3125 25.1458 33.3125 25.3958 33.375C25.5416 33.3958 25.6666 33.4375 25.7916 33.5C25.9166 33.5416 26.0416 33.6041 26.1666 33.6875C26.2708 33.7708 26.375 33.8541 26.4791 33.9375C26.8541 34.3333 27.0833 34.875 27.0833 35.4166C27.0833 35.9583 26.8541 36.5 26.4791 36.8958Z" fill="#FF4C4C"/>
</g>
</g>
</svg>
