<svg width="25" height="24" viewBox="0 0 25 24" fill="none" xmlns="http://www.w3.org/2000/svg">
<g id="vuesax/linear/clipboard-text">
<g id="clipboard-text">
<path id="Vector" d="M8.5 12.1992H15.5" stroke="#B5BBCF" stroke-width="1.5" stroke-miterlimit="10" stroke-linecap="round" stroke-linejoin="round"/>
<path id="Vector_2" d="M8.5 16.1992H12.88" stroke="#B5BBCF" stroke-width="1.5" stroke-miterlimit="10" stroke-linecap="round" stroke-linejoin="round"/>
<path id="Vector_3" d="M10.5 6H14.5C16.5 6 16.5 5 16.5 4C16.5 2 15.5 2 14.5 2H10.5C9.5 2 8.5 2 8.5 4C8.5 6 9.5 6 10.5 6Z" stroke="#B5BBCF" stroke-width="1.5" stroke-miterlimit="10" stroke-linecap="round" stroke-linejoin="round"/>
<path id="Vector_4" d="M16.5 4.01953C19.83 4.19953 21.5 5.42953 21.5 9.99953V15.9995C21.5 19.9995 20.5 21.9995 15.5 21.9995H9.5C4.5 21.9995 3.5 19.9995 3.5 15.9995V9.99953C3.5 5.43953 5.17 4.19953 8.5 4.01953" stroke="#B5BBCF" stroke-width="1.5" stroke-miterlimit="10" stroke-linecap="round" stroke-linejoin="round"/>
</g>
</g>
</svg>
