<svg width="25" height="24" viewBox="0 0 25 24" fill="none" xmlns="http://www.w3.org/2000/svg">
<g id="vuesax/bold/clipboard-text">
<g id="clipboard-text">
<path id="Vector" d="M14.85 2H10.15C9.11001 2 8.26001 2.84 8.26001 3.88V4.82C8.26001 5.86 9.10001 6.7 10.14 6.7H14.85C15.89 6.7 16.73 5.86 16.73 4.82V3.88C16.74 2.84 15.89 2 14.85 2Z" fill="#307D7E"/>
<path id="Vector_2" d="M17.74 4.81998C17.74 6.40998 16.44 7.70998 14.85 7.70998H10.15C8.56004 7.70998 7.26004 6.40998 7.26004 4.81998C7.26004 4.25998 6.66004 3.90998 6.16004 4.16998C4.75004 4.91998 3.79004 6.40998 3.79004 8.11998V17.53C3.79004 19.99 5.80004 22 8.26004 22H16.74C19.2 22 21.21 19.99 21.21 17.53V8.11998C21.21 6.40998 20.25 4.91998 18.84 4.16998C18.34 3.90998 17.74 4.25998 17.74 4.81998ZM12.88 16.95H8.50004C8.09004 16.95 7.75004 16.61 7.75004 16.2C7.75004 15.79 8.09004 15.45 8.50004 15.45H12.88C13.29 15.45 13.63 15.79 13.63 16.2C13.63 16.61 13.29 16.95 12.88 16.95ZM15.5 12.95H8.50004C8.09004 12.95 7.75004 12.61 7.75004 12.2C7.75004 11.79 8.09004 11.45 8.50004 11.45H15.5C15.91 11.45 16.25 11.79 16.25 12.2C16.25 12.61 15.91 12.95 15.5 12.95Z" fill="#307D7E"/>
</g>
</g>
</svg>
