<svg width="24" height="12" viewBox="0 0 24 12" fill="none" xmlns="http://www.w3.org/2000/svg">
<path id="Vector 151" d="M0.96967 5.46967C0.676777 5.76256 0.676777 6.23744 0.96967 6.53033L5.74264 11.3033C6.03553 11.5962 6.51041 11.5962 6.8033 11.3033C7.09619 11.0104 7.09619 10.5355 6.8033 10.2426L2.56066 6L6.8033 1.75736C7.09619 1.46447 7.09619 0.989593 6.8033 0.696699C6.51041 0.403806 6.03553 0.403806 5.74264 0.696699L0.96967 5.46967ZM22.5 6.75C22.9142 6.75 23.25 6.41421 23.25 6C23.25 5.58579 22.9142 5.25 22.5 5.25V6.75ZM1.5 6.75C1.50977 6.75 1.51957 6.75 1.52942 6.75C1.53927 6.75 1.54916 6.75 1.5591 6.75C1.56903 6.75 1.579 6.75 1.58902 6.75C1.59903 6.75 1.60909 6.75 1.61919 6.75C1.62929 6.75 1.63943 6.75 1.64961 6.75C1.65979 6.75 1.67001 6.75 1.68027 6.75C1.69053 6.75 1.70083 6.75 1.71118 6.75C1.72152 6.75 1.7319 6.75 1.74233 6.75C1.75275 6.75 1.76322 6.75 1.77372 6.75C1.78423 6.75 1.79477 6.75 1.80536 6.75C1.81594 6.75 1.82657 6.75 1.83723 6.75C1.84789 6.75 1.8586 6.75 1.86934 6.75C1.88009 6.75 1.89087 6.75 1.90169 6.75C1.91251 6.75 1.92338 6.75 1.93428 6.75C1.94518 6.75 1.95612 6.75 1.9671 6.75C1.97808 6.75 1.9891 6.75 2.00015 6.75C2.01121 6.75 2.02231 6.75 2.03344 6.75C2.04457 6.75 2.05575 6.75 2.06696 6.75C2.07817 6.75 2.08942 6.75 2.10071 6.75C2.11199 6.75 2.12332 6.75 2.13468 6.75C2.14605 6.75 2.15745 6.75 2.16889 6.75C2.18033 6.75 2.1918 6.75 2.20332 6.75C2.21483 6.75 2.22638 6.75 2.23797 6.75C2.24956 6.75 2.26119 6.75 2.27285 6.75C2.28452 6.75 2.29622 6.75 2.30796 6.75C2.31969 6.75 2.33147 6.75 2.34328 6.75C2.35509 6.75 2.36694 6.75 2.37883 6.75C2.39071 6.75 2.40263 6.75 2.41459 6.75C2.42655 6.75 2.43854 6.75 2.45057 6.75C2.4626 6.75 2.47467 6.75 2.48677 6.75C2.49887 6.75 2.51101 6.75 2.52319 6.75C2.53536 6.75 2.54757 6.75 2.55981 6.75C2.57206 6.75 2.58434 6.75 2.59666 6.75C2.60897 6.75 2.62132 6.75 2.63371 6.75C2.6461 6.75 2.65852 6.75 2.67097 6.75C2.68343 6.75 2.69592 6.75 2.70845 6.75C2.72098 6.75 2.73354 6.75 2.74613 6.75C2.75873 6.75 2.77136 6.75 2.78402 6.75C2.79669 6.75 2.80938 6.75 2.82212 6.75C2.83485 6.75 2.84762 6.75 2.86042 6.75C2.87322 6.75 2.88605 6.75 2.89892 6.75C2.91179 6.75 2.92469 6.75 2.93763 6.75C2.95056 6.75 2.96353 6.75 2.97653 6.75C2.98954 6.75 3.00257 6.75 3.01564 6.75C3.02871 6.75 3.04181 6.75 3.05495 6.75C3.06808 6.75 3.08125 6.75 3.09445 6.75C3.10765 6.75 3.12088 6.75 3.13415 6.75C3.14741 6.75 3.16071 6.75 3.17404 6.75C3.18737 6.75 3.20073 6.75 3.21413 6.75C3.22752 6.75 3.24095 6.75 3.25441 6.75C3.26787 6.75 3.28136 6.75 3.29488 6.75C3.30841 6.75 3.32196 6.75 3.33555 6.75C3.34913 6.75 3.36275 6.75 3.3764 6.75C3.39004 6.75 3.40372 6.75 3.41744 6.75C3.43115 6.75 3.44489 6.75 3.45866 6.75C3.47243 6.75 3.48624 6.75 3.50007 6.75C3.51391 6.75 3.52777 6.75 3.54167 6.75C3.55556 6.75 3.56949 6.75 3.58345 6.75C3.5974 6.75 3.61139 6.75 3.62541 6.75C3.63942 6.75 3.65347 6.75 3.66755 6.75C3.68162 6.75 3.69573 6.75 3.70987 6.75C3.724 6.75 3.73817 6.75 3.75236 6.75C3.76656 6.75 3.78079 6.75 3.79504 6.75C3.80929 6.75 3.82358 6.75 3.83789 6.75C3.8522 6.75 3.86655 6.75 3.88092 6.75C3.89529 6.75 3.90969 6.75 3.92411 6.75C3.93854 6.75 3.953 6.75 3.96749 6.75C3.98197 6.75 3.99648 6.75 4.01103 6.75C4.02557 6.75 4.04014 6.75 4.05474 6.75C4.06934 6.75 4.08396 6.75 4.09862 6.75C4.11327 6.75 4.12795 6.75 4.14267 6.75C4.15738 6.75 4.17211 6.75 4.18688 6.75C4.20164 6.75 4.21644 6.75 4.23126 6.75C4.24608 6.75 4.26092 6.75 4.2758 6.75C4.29067 6.75 4.30557 6.75 4.3205 6.75C4.33543 6.75 4.35039 6.75 4.36537 6.75C4.38035 6.75 4.39536 6.75 4.41039 6.75C4.42543 6.75 4.44049 6.75 4.45558 6.75C4.47066 6.75 4.48578 6.75 4.50092 6.75C4.51606 6.75 4.53123 6.75 4.54642 6.75C4.56161 6.75 4.57683 6.75 4.59207 6.75C4.60731 6.75 4.62258 6.75 4.63788 6.75C4.65317 6.75 4.66849 6.75 4.68384 6.75C4.69918 6.75 4.71455 6.75 4.72995 6.75C4.74535 6.75 4.76077 6.75 4.77621 6.75C4.79166 6.75 4.80713 6.75 4.82262 6.75C4.83812 6.75 4.85364 6.75 4.86918 6.75C4.88473 6.75 4.9003 6.75 4.91589 6.75C4.93148 6.75 4.9471 6.75 4.96274 6.75C4.97838 6.75 4.99405 6.75 5.00974 6.75C5.02543 6.75 5.04114 6.75 5.05688 6.75C5.07261 6.75 5.08837 6.75 5.10416 6.75C5.11994 6.75 5.13575 6.75 5.15158 6.75C5.16741 6.75 5.18326 6.75 5.19914 6.75C5.21502 6.75 5.23092 6.75 5.24684 6.75C5.26276 6.75 5.27871 6.75 5.29468 6.75C5.31065 6.75 5.32664 6.75 5.34265 6.75C5.35866 6.75 5.3747 6.75 5.39076 6.75C5.40682 6.75 5.4229 6.75 5.439 6.75C5.4551 6.75 5.47123 6.75 5.48737 6.75C5.50352 6.75 5.51969 6.75 5.53588 6.75C5.55207 6.75 5.56828 6.75 5.58451 6.75C5.60074 6.75 5.617 6.75 5.63327 6.75C5.64955 6.75 5.66585 6.75 5.68216 6.75C5.69848 6.75 5.71482 6.75 5.73118 6.75C5.74754 6.75 5.76392 6.75 5.78032 6.75C5.79672 6.75 5.81314 6.75 5.82959 6.75C5.84603 6.75 5.86249 6.75 5.87897 6.75C5.89546 6.75 5.91196 6.75 5.92848 6.75C5.94501 6.75 5.96155 6.75 5.97811 6.75C5.99468 6.75 6.01126 6.75 6.02786 6.75C6.04446 6.75 6.06109 6.75 6.07773 6.75C6.09437 6.75 6.11103 6.75 6.12771 6.75C6.14439 6.75 6.16109 6.75 6.17781 6.75C6.19453 6.75 6.21127 6.75 6.22802 6.75C6.24478 6.75 6.26155 6.75 6.27835 6.75C6.29514 6.75 6.31195 6.75 6.32878 6.75C6.34562 6.75 6.36246 6.75 6.37933 6.75C6.3962 6.75 6.41309 6.75 6.42999 6.75C6.44689 6.75 6.46382 6.75 6.48075 6.75C6.49769 6.75 6.51465 6.75 6.53163 6.75C6.5486 6.75 6.56559 6.75 6.5826 6.75C6.59962 6.75 6.61664 6.75 6.63369 6.75C6.65073 6.75 6.66779 6.75 6.68487 6.75C6.70195 6.75 6.71905 6.75 6.73616 6.75C6.75327 6.75 6.7704 6.75 6.78755 6.75C6.8047 6.75 6.82186 6.75 6.83904 6.75C6.85622 6.75 6.87341 6.75 6.89062 6.75C6.90784 6.75 6.92507 6.75 6.94231 6.75C6.95955 6.75 6.97681 6.75 6.99409 6.75C7.01137 6.75 7.02866 6.75 7.04596 6.75C7.06327 6.75 7.0806 6.75 7.09793 6.75C7.11527 6.75 7.13263 6.75 7.14999 6.75C7.16736 6.75 7.18475 6.75 7.20215 6.75C7.21955 6.75 7.23696 6.75 7.25439 6.75C7.27182 6.75 7.28926 6.75 7.30672 6.75C7.32418 6.75 7.34165 6.75 7.35914 6.75C7.37663 6.75 7.39413 6.75 7.41164 6.75C7.42916 6.75 7.44669 6.75 7.46424 6.75C7.48178 6.75 7.49934 6.75 7.51691 6.75C7.53448 6.75 7.55207 6.75 7.56967 6.75C7.58727 6.75 7.60488 6.75 7.62251 6.75C7.64013 6.75 7.65777 6.75 7.67543 6.75C7.69308 6.75 7.71074 6.75 7.72842 6.75C7.7461 6.75 7.7638 6.75 7.7815 6.75C7.79921 6.75 7.81692 6.75 7.83465 6.75C7.85238 6.75 7.87013 6.75 7.88788 6.75C7.90564 6.75 7.92341 6.75 7.94119 6.75C7.95897 6.75 7.97676 6.75 7.99456 6.75C8.01237 6.75 8.03018 6.75 8.04801 6.75C8.06584 6.75 8.08368 6.75 8.10153 6.75C8.11938 6.75 8.13724 6.75 8.15512 6.75C8.17299 6.75 8.19088 6.75 8.20877 6.75C8.22667 6.75 8.24458 6.75 8.2625 6.75C8.28042 6.75 8.29835 6.75 8.31629 6.75C8.33423 6.75 8.35218 6.75 8.37014 6.75C8.3881 6.75 8.40608 6.75 8.42406 6.75C8.44204 6.75 8.46004 6.75 8.47804 6.75C8.49604 6.75 8.51406 6.75 8.53208 6.75C8.5501 6.75 8.56814 6.75 8.58618 6.75C8.60423 6.75 8.62228 6.75 8.64034 6.75C8.6584 6.75 8.67648 6.75 8.69456 6.75C8.71264 6.75 8.73073 6.75 8.74883 6.75C8.76693 6.75 8.78504 6.75 8.80316 6.75C8.82128 6.75 8.83941 6.75 8.85754 6.75C8.87568 6.75 8.89382 6.75 8.91198 6.75C8.93013 6.75 8.94829 6.75 8.96646 6.75C8.98463 6.75 9.00281 6.75 9.021 6.75C9.03919 6.75 9.05738 6.75 9.07559 6.75C9.09379 6.75 9.112 6.75 9.13022 6.75C9.14844 6.75 9.16666 6.75 9.1849 6.75C9.20313 6.75 9.22137 6.75 9.23962 6.75C9.25787 6.75 9.27613 6.75 9.29439 6.75C9.31266 6.75 9.33093 6.75 9.34921 6.75C9.36748 6.75 9.38577 6.75 9.40406 6.75C9.42235 6.75 9.44065 6.75 9.45895 6.75C9.47726 6.75 9.49557 6.75 9.51389 6.75C9.53221 6.75 9.55053 6.75 9.56886 6.75C9.58719 6.75 9.60553 6.75 9.62387 6.75C9.64221 6.75 9.66056 6.75 9.67891 6.75C9.69727 6.75 9.71563 6.75 9.73399 6.75C9.75236 6.75 9.77073 6.75 9.78911 6.75C9.80748 6.75 9.82586 6.75 9.84425 6.75C9.86264 6.75 9.88103 6.75 9.89943 6.75C9.91782 6.75 9.93622 6.75 9.95463 6.75C9.97304 6.75 9.99145 6.75 10.0099 6.75C10.0283 6.75 10.0467 6.75 10.0651 6.75C10.0836 6.75 10.102 6.75 10.1204 6.75C10.1388 6.75 10.1573 6.75 10.1757 6.75C10.1942 6.75 10.2126 6.75 10.2311 6.75C10.2495 6.75 10.268 6.75 10.2864 6.75C10.3049 6.75 10.3233 6.75 10.3418 6.75C10.3603 6.75 10.3787 6.75 10.3972 6.75C10.4157 6.75 10.4341 6.75 10.4526 6.75C10.4711 6.75 10.4896 6.75 10.508 6.75C10.5265 6.75 10.545 6.75 10.5635 6.75C10.582 6.75 10.6005 6.75 10.619 6.75C10.6375 6.75 10.656 6.75 10.6744 6.75C10.6929 6.75 10.7114 6.75 10.7299 6.75C10.7484 6.75 10.7669 6.75 10.7854 6.75C10.804 6.75 10.8225 6.75 10.841 6.75C10.8595 6.75 10.878 6.75 10.8965 6.75C10.915 6.75 10.9335 6.75 10.952 6.75C10.9705 6.75 10.989 6.75 11.0076 6.75C11.0261 6.75 11.0446 6.75 11.0631 6.75C11.0816 6.75 11.1001 6.75 11.1187 6.75C11.1372 6.75 11.1557 6.75 11.1742 6.75C11.1927 6.75 11.2112 6.75 11.2298 6.75C11.2483 6.75 11.2668 6.75 11.2853 6.75C11.3038 6.75 11.3224 6.75 11.3409 6.75C11.3594 6.75 11.3779 6.75 11.3964 6.75C11.4149 6.75 11.4335 6.75 11.452 6.75C11.4705 6.75 11.489 6.75 11.5075 6.75C11.526 6.75 11.5446 6.75 11.5631 6.75C11.5816 6.75 11.6001 6.75 11.6186 6.75C11.6371 6.75 11.6556 6.75 11.6741 6.75C11.6926 6.75 11.7111 6.75 11.7296 6.75C11.7482 6.75 11.7667 6.75 11.7852 6.75C11.8037 6.75 11.8222 6.75 11.8407 6.75C11.8591 6.75 11.8776 6.75 11.8961 6.75C11.9146 6.75 11.9331 6.75 11.9516 6.75C11.9701 6.75 11.9886 6.75 12.0071 6.75C12.0255 6.75 12.044 6.75 12.0625 6.75C12.081 6.75 12.0994 6.75 12.1179 6.75C12.1364 6.75 12.1549 6.75 12.1733 6.75C12.1918 6.75 12.2102 6.75 12.2287 6.75C12.2472 6.75 12.2656 6.75 12.2841 6.75C12.3025 6.75 12.321 6.75 12.3394 6.75C12.3579 6.75 12.3763 6.75 12.3947 6.75C12.4132 6.75 12.4316 6.75 12.45 6.75C12.4684 6.75 12.4869 6.75 12.5053 6.75C12.5237 6.75 12.5421 6.75 12.5605 6.75C12.5789 6.75 12.5973 6.75 12.6157 6.75C12.6341 6.75 12.6525 6.75 12.6709 6.75C12.6893 6.75 12.7077 6.75 12.7261 6.75C12.7444 6.75 12.7628 6.75 12.7812 6.75C12.7995 6.75 12.8179 6.75 12.8363 6.75C12.8546 6.75 12.873 6.75 12.8913 6.75C12.9097 6.75 12.928 6.75 12.9463 6.75C12.9647 6.75 12.983 6.75 13.0013 6.75C13.0196 6.75 13.0379 6.75 13.0563 6.75C13.0746 6.75 13.0929 6.75 13.1112 6.75C13.1294 6.75 13.1477 6.75 13.166 6.75C13.1843 6.75 13.2026 6.75 13.2208 6.75C13.2391 6.75 13.2574 6.75 13.2756 6.75C13.2939 6.75 13.3121 6.75 13.3303 6.75C13.3486 6.75 13.3668 6.75 13.385 6.75C13.4033 6.75 13.4215 6.75 13.4397 6.75C13.4579 6.75 13.4761 6.75 13.4943 6.75C13.5125 6.75 13.5306 6.75 13.5488 6.75C13.567 6.75 13.5852 6.75 13.6033 6.75C13.6215 6.75 13.6396 6.75 13.6578 6.75C13.6759 6.75 13.694 6.75 13.7122 6.75C13.7303 6.75 13.7484 6.75 13.7665 6.75C13.7846 6.75 13.8027 6.75 13.8208 6.75C13.8389 6.75 13.8569 6.75 13.875 6.75C13.8931 6.75 13.9111 6.75 13.9292 6.75C13.9472 6.75 13.9653 6.75 13.9833 6.75C14.0013 6.75 14.0193 6.75 14.0373 6.75C14.0553 6.75 14.0733 6.75 14.0913 6.75C14.1093 6.75 14.1273 6.75 14.1453 6.75C14.1632 6.75 14.1812 6.75 14.1991 6.75C14.2171 6.75 14.235 6.75 14.2529 6.75C14.2708 6.75 14.2888 6.75 14.3067 6.75C14.3246 6.75 14.3425 6.75 14.3603 6.75C14.3782 6.75 14.3961 6.75 14.4139 6.75C14.4318 6.75 14.4496 6.75 14.4675 6.75C14.4853 6.75 14.5031 6.75 14.5209 6.75C14.5387 6.75 14.5565 6.75 14.5743 6.75C14.5921 6.75 14.6099 6.75 14.6276 6.75C14.6454 6.75 14.6631 6.75 14.6809 6.75C14.6986 6.75 14.7163 6.75 14.734 6.75C14.7517 6.75 14.7694 6.75 14.7871 6.75C14.8048 6.75 14.8225 6.75 14.8401 6.75C14.8578 6.75 14.8754 6.75 14.8931 6.75C14.9107 6.75 14.9283 6.75 14.9459 6.75C14.9635 6.75 14.9811 6.75 14.9987 6.75C15.0163 6.75 15.0338 6.75 15.0514 6.75C15.0689 6.75 15.0865 6.75 15.104 6.75C15.1215 6.75 15.139 6.75 15.1565 6.75C15.174 6.75 15.1915 6.75 15.209 6.75C15.2264 6.75 15.2439 6.75 15.2613 6.75C15.2787 6.75 15.2962 6.75 15.3136 6.75C15.331 6.75 15.3484 6.75 15.3657 6.75C15.3831 6.75 15.4005 6.75 15.4178 6.75C15.4352 6.75 15.4525 6.75 15.4698 6.75C15.4871 6.75 15.5044 6.75 15.5217 6.75C15.539 6.75 15.5562 6.75 15.5735 6.75C15.5907 6.75 15.608 6.75 15.6252 6.75C15.6424 6.75 15.6596 6.75 15.6768 6.75C15.694 6.75 15.7111 6.75 15.7283 6.75C15.7455 6.75 15.7626 6.75 15.7797 6.75C15.7968 6.75 15.8139 6.75 15.831 6.75C15.8481 6.75 15.8652 6.75 15.8822 6.75C15.8993 6.75 15.9163 6.75 15.9333 6.75C15.9503 6.75 15.9673 6.75 15.9843 6.75C16.0013 6.75 16.0183 6.75 16.0352 6.75C16.0522 6.75 16.0691 6.75 16.086 6.75C16.1029 6.75 16.1198 6.75 16.1367 6.75C16.1535 6.75 16.1704 6.75 16.1872 6.75C16.2041 6.75 16.2209 6.75 16.2377 6.75C16.2545 6.75 16.2713 6.75 16.288 6.75C16.3048 6.75 16.3216 6.75 16.3383 6.75C16.355 6.75 16.3717 6.75 16.3884 6.75C16.4051 6.75 16.4218 6.75 16.4384 6.75C16.4551 6.75 16.4717 6.75 16.4883 6.75C16.5049 6.75 16.5215 6.75 16.5381 6.75C16.5546 6.75 16.5712 6.75 16.5877 6.75C16.6042 6.75 16.6208 6.75 16.6372 6.75C16.6537 6.75 16.6702 6.75 16.6867 6.75C16.7031 6.75 16.7195 6.75 16.7359 6.75C16.7524 6.75 16.7687 6.75 16.7851 6.75C16.8015 6.75 16.8178 6.75 16.8341 6.75C16.8505 6.75 16.8668 6.75 16.8831 6.75C16.8993 6.75 16.9156 6.75 16.9318 6.75C16.9481 6.75 16.9643 6.75 16.9805 6.75C16.9967 6.75 17.0129 6.75 17.029 6.75C17.0452 6.75 17.0613 6.75 17.0774 6.75C17.0935 6.75 17.1096 6.75 17.1257 6.75C17.1418 6.75 17.1578 6.75 17.1738 6.75C17.1898 6.75 17.2058 6.75 17.2218 6.75C17.2378 6.75 17.2538 6.75 17.2697 6.75C17.2856 6.75 17.3015 6.75 17.3174 6.75C17.3333 6.75 17.3492 6.75 17.365 6.75C17.3808 6.75 17.3967 6.75 17.4124 6.75C17.4282 6.75 17.444 6.75 17.4598 6.75C17.4755 6.75 17.4912 6.75 17.5069 6.75C17.5226 6.75 17.5383 6.75 17.5539 6.75C17.5696 6.75 17.5852 6.75 17.6008 6.75C17.6164 6.75 17.632 6.75 17.6476 6.75C17.6631 6.75 17.6786 6.75 17.6941 6.75C17.7096 6.75 17.7251 6.75 17.7406 6.75C17.756 6.75 17.7715 6.75 17.7869 6.75C17.8023 6.75 17.8177 6.75 17.833 6.75C17.8484 6.75 17.8637 6.75 17.879 6.75C17.8943 6.75 17.9096 6.75 17.9248 6.75C17.9401 6.75 17.9553 6.75 17.9705 6.75C17.9857 6.75 18.0009 6.75 18.016 6.75C18.0312 6.75 18.0463 6.75 18.0614 6.75C18.0765 6.75 18.0916 6.75 18.1066 6.75C18.1217 6.75 18.1367 6.75 18.1517 6.75C18.1667 6.75 18.1816 6.75 18.1966 6.75C18.2115 6.75 18.2264 6.75 18.2413 6.75C18.2562 6.75 18.2711 6.75 18.2859 6.75C18.3007 6.75 18.3155 6.75 18.3303 6.75C18.3451 6.75 18.3598 6.75 18.3745 6.75C18.3893 6.75 18.4039 6.75 18.4186 6.75C18.4333 6.75 18.4479 6.75 18.4625 6.75C18.4771 6.75 18.4917 6.75 18.5063 6.75C18.5208 6.75 18.5353 6.75 18.5498 6.75C18.5643 6.75 18.5788 6.75 18.5932 6.75C18.6077 6.75 18.6221 6.75 18.6365 6.75C18.6509 6.75 18.6652 6.75 18.6795 6.75C18.6939 6.75 18.7082 6.75 18.7224 6.75C18.7367 6.75 18.7509 6.75 18.7651 6.75C18.7793 6.75 18.7935 6.75 18.8077 6.75C18.8218 6.75 18.8359 6.75 18.85 6.75C18.8641 6.75 18.8782 6.75 18.8922 6.75C18.9062 6.75 18.9202 6.75 18.9342 6.75C18.9481 6.75 18.9621 6.75 18.976 6.75C18.9899 6.75 19.0038 6.75 19.0176 6.75C19.0315 6.75 19.0453 6.75 19.0591 6.75C19.0728 6.75 19.0866 6.75 19.1003 6.75C19.114 6.75 19.1277 6.75 19.1414 6.75C19.1551 6.75 19.1687 6.75 19.1823 6.75C19.1959 6.75 19.2094 6.75 19.223 6.75C19.2365 6.75 19.25 6.75 19.2635 6.75C19.277 6.75 19.2904 6.75 19.3038 6.75C19.3172 6.75 19.3306 6.75 19.3439 6.75C19.3573 6.75 19.3706 6.75 19.3839 6.75C19.3971 6.75 19.4104 6.75 19.4236 6.75C19.4368 6.75 19.45 6.75 19.4631 6.75C19.4763 6.75 19.4894 6.75 19.5025 6.75C19.5156 6.75 19.5286 6.75 19.5416 6.75C19.5546 6.75 19.5676 6.75 19.5806 6.75C19.5935 6.75 19.6064 6.75 19.6193 6.75C19.6322 6.75 19.645 6.75 19.6578 6.75C19.6707 6.75 19.6834 6.75 19.6962 6.75C19.7089 6.75 19.7216 6.75 19.7343 6.75C19.747 6.75 19.7596 6.75 19.7722 6.75C19.7849 6.75 19.7974 6.75 19.81 6.75C19.8225 6.75 19.835 6.75 19.8475 6.75C19.8599 6.75 19.8724 6.75 19.8848 6.75C19.8972 6.75 19.9095 6.75 19.9219 6.75C19.9342 6.75 19.9465 6.75 19.9588 6.75C19.971 6.75 19.9832 6.75 19.9954 6.75C20.0076 6.75 20.0198 6.75 20.0319 6.75C20.044 6.75 20.0561 6.75 20.0681 6.75C20.0802 6.75 20.0922 6.75 20.1041 6.75C20.1161 6.75 20.128 6.75 20.1399 6.75C20.1518 6.75 20.1637 6.75 20.1755 6.75C20.1874 6.75 20.1991 6.75 20.2109 6.75C20.2226 6.75 20.2344 6.75 20.246 6.75C20.2577 6.75 20.2694 6.75 20.281 6.75C20.2926 6.75 20.3041 6.75 20.3157 6.75C20.3272 6.75 20.3387 6.75 20.3501 6.75C20.3616 6.75 20.373 6.75 20.3844 6.75C20.3958 6.75 20.4071 6.75 20.4184 6.75C20.4297 6.75 20.441 6.75 20.4522 6.75C20.4634 6.75 20.4746 6.75 20.4857 6.75C20.4969 6.75 20.508 6.75 20.5191 6.75C20.5301 6.75 20.5412 6.75 20.5522 6.75C20.5632 6.75 20.5741 6.75 20.585 6.75C20.596 6.75 20.6068 6.75 20.6177 6.75C20.6285 6.75 20.6393 6.75 20.6501 6.75C20.6608 6.75 20.6715 6.75 20.6822 6.75C20.6929 6.75 20.7035 6.75 20.7141 6.75C20.7247 6.75 20.7353 6.75 20.7458 6.75C20.7563 6.75 20.7668 6.75 20.7773 6.75C20.7877 6.75 20.7981 6.75 20.8084 6.75C20.8188 6.75 20.8291 6.75 20.8394 6.75C20.8497 6.75 20.8599 6.75 20.8701 6.75C20.8803 6.75 20.8905 6.75 20.9006 6.75C20.9107 6.75 20.9208 6.75 20.9308 6.75C20.9408 6.75 20.9508 6.75 20.9608 6.75C20.9707 6.75 20.9806 6.75 20.9905 6.75C21.0003 6.75 21.0102 6.75 21.0199 6.75C21.0297 6.75 21.0395 6.75 21.0492 6.75C21.0589 6.75 21.0685 6.75 21.0781 6.75C21.0877 6.75 21.0973 6.75 21.1068 6.75C21.1164 6.75 21.1259 6.75 21.1353 6.75C21.1447 6.75 21.1541 6.75 21.1635 6.75C21.1729 6.75 21.1822 6.75 21.1914 6.75C21.2007 6.75 21.2099 6.75 21.2191 6.75C21.2283 6.75 21.2374 6.75 21.2465 6.75C21.2556 6.75 21.2647 6.75 21.2737 6.75C21.2827 6.75 21.2917 6.75 21.3006 6.75C21.3095 6.75 21.3184 6.75 21.3272 6.75C21.3361 6.75 21.3449 6.75 21.3536 6.75C21.3624 6.75 21.3711 6.75 21.3797 6.75C21.3884 6.75 21.397 6.75 21.4056 6.75C21.4141 6.75 21.4226 6.75 21.4311 6.75C21.4396 6.75 21.448 6.75 21.4564 6.75C21.4648 6.75 21.4732 6.75 21.4814 6.75C21.4897 6.75 21.498 6.75 21.5062 6.75C21.5144 6.75 21.5226 6.75 21.5307 6.75C21.5388 6.75 21.5469 6.75 21.5549 6.75C21.5629 6.75 21.5709 6.75 21.5788 6.75C21.5868 6.75 21.5946 6.75 21.6025 6.75C21.6103 6.75 21.6181 6.75 21.6259 6.75C21.6336 6.75 21.6413 6.75 21.649 6.75C21.6566 6.75 21.6642 6.75 21.6718 6.75C21.6793 6.75 21.6869 6.75 21.6943 6.75C21.7018 6.75 21.7092 6.75 21.7166 6.75C21.7239 6.75 21.7313 6.75 21.7385 6.75C21.7458 6.75 21.753 6.75 21.7602 6.75C21.7674 6.75 21.7745 6.75 21.7816 6.75C21.7887 6.75 21.7957 6.75 21.8027 6.75C21.8097 6.75 21.8167 6.75 21.8236 6.75C21.8304 6.75 21.8373 6.75 21.8441 6.75C21.8509 6.75 21.8576 6.75 21.8643 6.75C21.871 6.75 21.8777 6.75 21.8843 6.75C21.8909 6.75 21.8974 6.75 21.9039 6.75C21.9104 6.75 21.9169 6.75 21.9233 6.75C21.9297 6.75 21.936 6.75 21.9423 6.75C21.9486 6.75 21.9549 6.75 21.9611 6.75C21.9673 6.75 21.9735 6.75 21.9796 6.75C21.9857 6.75 21.9917 6.75 21.9977 6.75C22.0037 6.75 22.0097 6.75 22.0156 6.75C22.0215 6.75 22.0274 6.75 22.0332 6.75C22.039 6.75 22.0447 6.75 22.0504 6.75C22.0561 6.75 22.0618 6.75 22.0674 6.75C22.073 6.75 22.0785 6.75 22.084 6.75C22.0895 6.75 22.095 6.75 22.1004 6.75C22.1058 6.75 22.1111 6.75 22.1164 6.75C22.1217 6.75 22.1269 6.75 22.1321 6.75C22.1373 6.75 22.1425 6.75 22.1475 6.75C22.1526 6.75 22.1577 6.75 22.1626 6.75C22.1676 6.75 22.1726 6.75 22.1774 6.75C22.1823 6.75 22.1871 6.75 22.1919 6.75C22.1967 6.75 22.2014 6.75 22.2061 6.75C22.2107 6.75 22.2153 6.75 22.2199 6.75C22.2245 6.75 22.229 6.75 22.2334 6.75C22.2379 6.75 22.2423 6.75 22.2466 6.75C22.251 6.75 22.2553 6.75 22.2595 6.75C22.2638 6.75 22.2679 6.75 22.2721 6.75C22.2762 6.75 22.2803 6.75 22.2843 6.75C22.2883 6.75 22.2923 6.75 22.2962 6.75C22.3002 6.75 22.304 6.75 22.3078 6.75C22.3116 6.75 22.3154 6.75 22.3191 6.75C22.3228 6.75 22.3264 6.75 22.33 6.75C22.3336 6.75 22.3372 6.75 22.3406 6.75C22.3441 6.75 22.3475 6.75 22.3509 6.75C22.3543 6.75 22.3576 6.75 22.3609 6.75C22.3641 6.75 22.3673 6.75 22.3705 6.75C22.3736 6.75 22.3767 6.75 22.3798 6.75C22.3828 6.75 22.3858 6.75 22.3887 6.75C22.3916 6.75 22.3945 6.75 22.3973 6.75C22.4001 6.75 22.4029 6.75 22.4056 6.75C22.4083 6.75 22.4109 6.75 22.4135 6.75C22.4161 6.75 22.4186 6.75 22.4211 6.75C22.4236 6.75 22.426 6.75 22.4284 6.75C22.4307 6.75 22.433 6.75 22.4353 6.75C22.4375 6.75 22.4397 6.75 22.4418 6.75C22.444 6.75 22.4461 6.75 22.4481 6.75C22.4501 6.75 22.452 6.75 22.4539 6.75C22.4559 6.75 22.4577 6.75 22.4595 6.75C22.4613 6.75 22.463 6.75 22.4647 6.75C22.4663 6.75 22.4679 6.75 22.4695 6.75C22.4711 6.75 22.4725 6.75 22.474 6.75C22.4754 6.75 22.4768 6.75 22.4781 6.75C22.4794 6.75 22.4807 6.75 22.4819 6.75C22.4831 6.75 22.4842 6.75 22.4853 6.75C22.4864 6.75 22.4874 6.75 22.4884 6.75C22.4893 6.75 22.4903 6.75 22.4911 6.75C22.4919 6.75 22.4927 6.75 22.4935 6.75C22.4942 6.75 22.4948 6.75 22.4954 6.75C22.4961 6.75 22.4966 6.75 22.4971 6.75C22.4976 6.75 22.498 6.75 22.4984 6.75C22.4987 6.75 22.499 6.75 22.4993 6.75C22.4995 6.75 22.4997 6.75 22.4998 6.75C22.4999 6.75 22.5 6.75 22.5 6C22.5 5.25 22.4999 5.25 22.4998 5.25C22.4997 5.25 22.4995 5.25 22.4993 5.25C22.499 5.25 22.4987 5.25 22.4984 5.25C22.498 5.25 22.4976 5.25 22.4971 5.25C22.4966 5.25 22.4961 5.25 22.4954 5.25C22.4948 5.25 22.4942 5.25 22.4935 5.25C22.4927 5.25 22.4919 5.25 22.4911 5.25C22.4903 5.25 22.4893 5.25 22.4884 5.25C22.4874 5.25 22.4864 5.25 22.4853 5.25C22.4842 5.25 22.4831 5.25 22.4819 5.25C22.4807 5.25 22.4794 5.25 22.4781 5.25C22.4768 5.25 22.4754 5.25 22.474 5.25C22.4725 5.25 22.4711 5.25 22.4695 5.25C22.4679 5.25 22.4663 5.25 22.4647 5.25C22.463 5.25 22.4613 5.25 22.4595 5.25C22.4577 5.25 22.4559 5.25 22.4539 5.25C22.452 5.25 22.4501 5.25 22.4481 5.25C22.4461 5.25 22.444 5.25 22.4418 5.25C22.4397 5.25 22.4375 5.25 22.4353 5.25C22.433 5.25 22.4307 5.25 22.4284 5.25C22.426 5.25 22.4236 5.25 22.4211 5.25C22.4186 5.25 22.4161 5.25 22.4135 5.25C22.4109 5.25 22.4083 5.25 22.4056 5.25C22.4029 5.25 22.4001 5.25 22.3973 5.25C22.3945 5.25 22.3916 5.25 22.3887 5.25C22.3858 5.25 22.3828 5.25 22.3798 5.25C22.3767 5.25 22.3736 5.25 22.3705 5.25C22.3673 5.25 22.3641 5.25 22.3609 5.25C22.3576 5.25 22.3543 5.25 22.3509 5.25C22.3475 5.25 22.3441 5.25 22.3406 5.25C22.3372 5.25 22.3336 5.25 22.33 5.25C22.3264 5.25 22.3228 5.25 22.3191 5.25C22.3154 5.25 22.3116 5.25 22.3078 5.25C22.304 5.25 22.3002 5.25 22.2962 5.25C22.2923 5.25 22.2883 5.25 22.2843 5.25C22.2803 5.25 22.2762 5.25 22.2721 5.25C22.2679 5.25 22.2638 5.25 22.2595 5.25C22.2553 5.25 22.251 5.25 22.2466 5.25C22.2423 5.25 22.2379 5.25 22.2334 5.25C22.229 5.25 22.2245 5.25 22.2199 5.25C22.2153 5.25 22.2107 5.25 22.2061 5.25C22.2014 5.25 22.1967 5.25 22.1919 5.25C22.1871 5.25 22.1823 5.25 22.1774 5.25C22.1726 5.25 22.1676 5.25 22.1626 5.25C22.1577 5.25 22.1526 5.25 22.1475 5.25C22.1425 5.25 22.1373 5.25 22.1321 5.25C22.1269 5.25 22.1217 5.25 22.1164 5.25C22.1111 5.25 22.1058 5.25 22.1004 5.25C22.095 5.25 22.0895 5.25 22.084 5.25C22.0785 5.25 22.073 5.25 22.0674 5.25C22.0618 5.25 22.0561 5.25 22.0504 5.25C22.0447 5.25 22.039 5.25 22.0332 5.25C22.0274 5.25 22.0215 5.25 22.0156 5.25C22.0097 5.25 22.0037 5.25 21.9977 5.25C21.9917 5.25 21.9857 5.25 21.9796 5.25C21.9735 5.25 21.9673 5.25 21.9611 5.25C21.9549 5.25 21.9486 5.25 21.9423 5.25C21.936 5.25 21.9297 5.25 21.9233 5.25C21.9169 5.25 21.9104 5.25 21.9039 5.25C21.8974 5.25 21.8909 5.25 21.8843 5.25C21.8777 5.25 21.871 5.25 21.8643 5.25C21.8576 5.25 21.8509 5.25 21.8441 5.25C21.8373 5.25 21.8304 5.25 21.8236 5.25C21.8167 5.25 21.8097 5.25 21.8027 5.25C21.7957 5.25 21.7887 5.25 21.7816 5.25C21.7745 5.25 21.7674 5.25 21.7602 5.25C21.753 5.25 21.7458 5.25 21.7385 5.25C21.7313 5.25 21.7239 5.25 21.7166 5.25C21.7092 5.25 21.7018 5.25 21.6943 5.25C21.6869 5.25 21.6793 5.25 21.6718 5.25C21.6642 5.25 21.6566 5.25 21.649 5.25C21.6413 5.25 21.6336 5.25 21.6259 5.25C21.6181 5.25 21.6103 5.25 21.6025 5.25C21.5946 5.25 21.5868 5.25 21.5788 5.25C21.5709 5.25 21.5629 5.25 21.5549 5.25C21.5469 5.25 21.5388 5.25 21.5307 5.25C21.5226 5.25 21.5144 5.25 21.5062 5.25C21.498 5.25 21.4897 5.25 21.4814 5.25C21.4732 5.25 21.4648 5.25 21.4564 5.25C21.448 5.25 21.4396 5.25 21.4311 5.25C21.4226 5.25 21.4141 5.25 21.4056 5.25C21.397 5.25 21.3884 5.25 21.3797 5.25C21.3711 5.25 21.3624 5.25 21.3536 5.25C21.3449 5.25 21.3361 5.25 21.3272 5.25C21.3184 5.25 21.3095 5.25 21.3006 5.25C21.2917 5.25 21.2827 5.25 21.2737 5.25C21.2647 5.25 21.2556 5.25 21.2465 5.25C21.2374 5.25 21.2283 5.25 21.2191 5.25C21.2099 5.25 21.2007 5.25 21.1914 5.25C21.1822 5.25 21.1729 5.25 21.1635 5.25C21.1541 5.25 21.1447 5.25 21.1353 5.25C21.1259 5.25 21.1164 5.25 21.1068 5.25C21.0973 5.25 21.0877 5.25 21.0781 5.25C21.0685 5.25 21.0589 5.25 21.0492 5.25C21.0395 5.25 21.0297 5.25 21.0199 5.25C21.0102 5.25 21.0003 5.25 20.9905 5.25C20.9806 5.25 20.9707 5.25 20.9608 5.25C20.9508 5.25 20.9408 5.25 20.9308 5.25C20.9208 5.25 20.9107 5.25 20.9006 5.25C20.8905 5.25 20.8803 5.25 20.8701 5.25C20.8599 5.25 20.8497 5.25 20.8394 5.25C20.8291 5.25 20.8188 5.25 20.8084 5.25C20.7981 5.25 20.7877 5.25 20.7773 5.25C20.7668 5.25 20.7563 5.25 20.7458 5.25C20.7353 5.25 20.7247 5.25 20.7141 5.25C20.7035 5.25 20.6929 5.25 20.6822 5.25C20.6715 5.25 20.6608 5.25 20.6501 5.25C20.6393 5.25 20.6285 5.25 20.6177 5.25C20.6068 5.25 20.596 5.25 20.585 5.25C20.5741 5.25 20.5632 5.25 20.5522 5.25C20.5412 5.25 20.5301 5.25 20.5191 5.25C20.508 5.25 20.4969 5.25 20.4857 5.25C20.4746 5.25 20.4634 5.25 20.4522 5.25C20.441 5.25 20.4297 5.25 20.4184 5.25C20.4071 5.25 20.3958 5.25 20.3844 5.25C20.373 5.25 20.3616 5.25 20.3501 5.25C20.3387 5.25 20.3272 5.25 20.3157 5.25C20.3041 5.25 20.2926 5.25 20.281 5.25C20.2694 5.25 20.2577 5.25 20.246 5.25C20.2344 5.25 20.2226 5.25 20.2109 5.25C20.1991 5.25 20.1874 5.25 20.1755 5.25C20.1637 5.25 20.1518 5.25 20.1399 5.25C20.128 5.25 20.1161 5.25 20.1041 5.25C20.0922 5.25 20.0802 5.25 20.0681 5.25C20.0561 5.25 20.044 5.25 20.0319 5.25C20.0198 5.25 20.0076 5.25 19.9954 5.25C19.9832 5.25 19.971 5.25 19.9588 5.25C19.9465 5.25 19.9342 5.25 19.9219 5.25C19.9095 5.25 19.8972 5.25 19.8848 5.25C19.8724 5.25 19.8599 5.25 19.8475 5.25C19.835 5.25 19.8225 5.25 19.81 5.25C19.7974 5.25 19.7849 5.25 19.7722 5.25C19.7596 5.25 19.747 5.25 19.7343 5.25C19.7216 5.25 19.7089 5.25 19.6962 5.25C19.6834 5.25 19.6707 5.25 19.6578 5.25C19.645 5.25 19.6322 5.25 19.6193 5.25C19.6064 5.25 19.5935 5.25 19.5806 5.25C19.5676 5.25 19.5546 5.25 19.5416 5.25C19.5286 5.25 19.5156 5.25 19.5025 5.25C19.4894 5.25 19.4763 5.25 19.4631 5.25C19.45 5.25 19.4368 5.25 19.4236 5.25C19.4104 5.25 19.3971 5.25 19.3839 5.25C19.3706 5.25 19.3573 5.25 19.3439 5.25C19.3306 5.25 19.3172 5.25 19.3038 5.25C19.2904 5.25 19.277 5.25 19.2635 5.25C19.25 5.25 19.2365 5.25 19.223 5.25C19.2094 5.25 19.1959 5.25 19.1823 5.25C19.1687 5.25 19.1551 5.25 19.1414 5.25C19.1277 5.25 19.114 5.25 19.1003 5.25C19.0866 5.25 19.0728 5.25 19.0591 5.25C19.0453 5.25 19.0315 5.25 19.0176 5.25C19.0038 5.25 18.9899 5.25 18.976 5.25C18.9621 5.25 18.9481 5.25 18.9342 5.25C18.9202 5.25 18.9062 5.25 18.8922 5.25C18.8782 5.25 18.8641 5.25 18.85 5.25C18.8359 5.25 18.8218 5.25 18.8077 5.25C18.7935 5.25 18.7793 5.25 18.7651 5.25C18.7509 5.25 18.7367 5.25 18.7224 5.25C18.7082 5.25 18.6939 5.25 18.6795 5.25C18.6652 5.25 18.6509 5.25 18.6365 5.25C18.6221 5.25 18.6077 5.25 18.5932 5.25C18.5788 5.25 18.5643 5.25 18.5498 5.25C18.5353 5.25 18.5208 5.25 18.5063 5.25C18.4917 5.25 18.4771 5.25 18.4625 5.25C18.4479 5.25 18.4333 5.25 18.4186 5.25C18.4039 5.25 18.3893 5.25 18.3745 5.25C18.3598 5.25 18.3451 5.25 18.3303 5.25C18.3155 5.25 18.3007 5.25 18.2859 5.25C18.2711 5.25 18.2562 5.25 18.2413 5.25C18.2264 5.25 18.2115 5.25 18.1966 5.25C18.1816 5.25 18.1667 5.25 18.1517 5.25C18.1367 5.25 18.1217 5.25 18.1066 5.25C18.0916 5.25 18.0765 5.25 18.0614 5.25C18.0463 5.25 18.0312 5.25 18.016 5.25C18.0009 5.25 17.9857 5.25 17.9705 5.25C17.9553 5.25 17.9401 5.25 17.9248 5.25C17.9096 5.25 17.8943 5.25 17.879 5.25C17.8637 5.25 17.8484 5.25 17.833 5.25C17.8177 5.25 17.8023 5.25 17.7869 5.25C17.7715 5.25 17.756 5.25 17.7406 5.25C17.7251 5.25 17.7096 5.25 17.6941 5.25C17.6786 5.25 17.6631 5.25 17.6476 5.25C17.632 5.25 17.6164 5.25 17.6008 5.25C17.5852 5.25 17.5696 5.25 17.5539 5.25C17.5383 5.25 17.5226 5.25 17.5069 5.25C17.4912 5.25 17.4755 5.25 17.4598 5.25C17.444 5.25 17.4282 5.25 17.4124 5.25C17.3967 5.25 17.3808 5.25 17.365 5.25C17.3492 5.25 17.3333 5.25 17.3174 5.25C17.3015 5.25 17.2856 5.25 17.2697 5.25C17.2538 5.25 17.2378 5.25 17.2218 5.25C17.2058 5.25 17.1898 5.25 17.1738 5.25C17.1578 5.25 17.1418 5.25 17.1257 5.25C17.1096 5.25 17.0935 5.25 17.0774 5.25C17.0613 5.25 17.0452 5.25 17.029 5.25C17.0129 5.25 16.9967 5.25 16.9805 5.25C16.9643 5.25 16.9481 5.25 16.9318 5.25C16.9156 5.25 16.8993 5.25 16.8831 5.25C16.8668 5.25 16.8505 5.25 16.8341 5.25C16.8178 5.25 16.8015 5.25 16.7851 5.25C16.7687 5.25 16.7524 5.25 16.7359 5.25C16.7195 5.25 16.7031 5.25 16.6867 5.25C16.6702 5.25 16.6537 5.25 16.6372 5.25C16.6208 5.25 16.6042 5.25 16.5877 5.25C16.5712 5.25 16.5546 5.25 16.5381 5.25C16.5215 5.25 16.5049 5.25 16.4883 5.25C16.4717 5.25 16.4551 5.25 16.4384 5.25C16.4218 5.25 16.4051 5.25 16.3884 5.25C16.3717 5.25 16.355 5.25 16.3383 5.25C16.3216 5.25 16.3048 5.25 16.288 5.25C16.2713 5.25 16.2545 5.25 16.2377 5.25C16.2209 5.25 16.2041 5.25 16.1872 5.25C16.1704 5.25 16.1535 5.25 16.1367 5.25C16.1198 5.25 16.1029 5.25 16.086 5.25C16.0691 5.25 16.0522 5.25 16.0352 5.25C16.0183 5.25 16.0013 5.25 15.9843 5.25C15.9673 5.25 15.9503 5.25 15.9333 5.25C15.9163 5.25 15.8993 5.25 15.8822 5.25C15.8652 5.25 15.8481 5.25 15.831 5.25C15.8139 5.25 15.7968 5.25 15.7797 5.25C15.7626 5.25 15.7455 5.25 15.7283 5.25C15.7111 5.25 15.694 5.25 15.6768 5.25C15.6596 5.25 15.6424 5.25 15.6252 5.25C15.608 5.25 15.5907 5.25 15.5735 5.25C15.5562 5.25 15.539 5.25 15.5217 5.25C15.5044 5.25 15.4871 5.25 15.4698 5.25C15.4525 5.25 15.4352 5.25 15.4178 5.25C15.4005 5.25 15.3831 5.25 15.3657 5.25C15.3484 5.25 15.331 5.25 15.3136 5.25C15.2962 5.25 15.2787 5.25 15.2613 5.25C15.2439 5.25 15.2264 5.25 15.209 5.25C15.1915 5.25 15.174 5.25 15.1565 5.25C15.139 5.25 15.1215 5.25 15.104 5.25C15.0865 5.25 15.0689 5.25 15.0514 5.25C15.0338 5.25 15.0163 5.25 14.9987 5.25C14.9811 5.25 14.9635 5.25 14.9459 5.25C14.9283 5.25 14.9107 5.25 14.8931 5.25C14.8754 5.25 14.8578 5.25 14.8401 5.25C14.8225 5.25 14.8048 5.25 14.7871 5.25C14.7694 5.25 14.7517 5.25 14.734 5.25C14.7163 5.25 14.6986 5.25 14.6809 5.25C14.6631 5.25 14.6454 5.25 14.6276 5.25C14.6099 5.25 14.5921 5.25 14.5743 5.25C14.5565 5.25 14.5387 5.25 14.5209 5.25C14.5031 5.25 14.4853 5.25 14.4675 5.25C14.4496 5.25 14.4318 5.25 14.4139 5.25C14.3961 5.25 14.3782 5.25 14.3603 5.25C14.3425 5.25 14.3246 5.25 14.3067 5.25C14.2888 5.25 14.2708 5.25 14.2529 5.25C14.235 5.25 14.2171 5.25 14.1991 5.25C14.1812 5.25 14.1632 5.25 14.1453 5.25C14.1273 5.25 14.1093 5.25 14.0913 5.25C14.0733 5.25 14.0553 5.25 14.0373 5.25C14.0193 5.25 14.0013 5.25 13.9833 5.25C13.9653 5.25 13.9472 5.25 13.9292 5.25C13.9111 5.25 13.8931 5.25 13.875 5.25C13.8569 5.25 13.8389 5.25 13.8208 5.25C13.8027 5.25 13.7846 5.25 13.7665 5.25C13.7484 5.25 13.7303 5.25 13.7122 5.25C13.694 5.25 13.6759 5.25 13.6578 5.25C13.6396 5.25 13.6215 5.25 13.6033 5.25C13.5852 5.25 13.567 5.25 13.5488 5.25C13.5306 5.25 13.5125 5.25 13.4943 5.25C13.4761 5.25 13.4579 5.25 13.4397 5.25C13.4215 5.25 13.4033 5.25 13.385 5.25C13.3668 5.25 13.3486 5.25 13.3303 5.25C13.3121 5.25 13.2939 5.25 13.2756 5.25C13.2574 5.25 13.2391 5.25 13.2208 5.25C13.2026 5.25 13.1843 5.25 13.166 5.25C13.1477 5.25 13.1294 5.25 13.1112 5.25C13.0929 5.25 13.0746 5.25 13.0563 5.25C13.0379 5.25 13.0196 5.25 13.0013 5.25C12.983 5.25 12.9647 5.25 12.9463 5.25C12.928 5.25 12.9097 5.25 12.8913 5.25C12.873 5.25 12.8546 5.25 12.8363 5.25C12.8179 5.25 12.7995 5.25 12.7812 5.25C12.7628 5.25 12.7444 5.25 12.7261 5.25C12.7077 5.25 12.6893 5.25 12.6709 5.25C12.6525 5.25 12.6341 5.25 12.6157 5.25C12.5973 5.25 12.5789 5.25 12.5605 5.25C12.5421 5.25 12.5237 5.25 12.5053 5.25C12.4869 5.25 12.4684 5.25 12.45 5.25C12.4316 5.25 12.4132 5.25 12.3947 5.25C12.3763 5.25 12.3579 5.25 12.3394 5.25C12.321 5.25 12.3025 5.25 12.2841 5.25C12.2656 5.25 12.2472 5.25 12.2287 5.25C12.2102 5.25 12.1918 5.25 12.1733 5.25C12.1549 5.25 12.1364 5.25 12.1179 5.25C12.0994 5.25 12.081 5.25 12.0625 5.25C12.044 5.25 12.0255 5.25 12.0071 5.25C11.9886 5.25 11.9701 5.25 11.9516 5.25C11.9331 5.25 11.9146 5.25 11.8961 5.25C11.8776 5.25 11.8591 5.25 11.8407 5.25C11.8222 5.25 11.8037 5.25 11.7852 5.25C11.7667 5.25 11.7482 5.25 11.7296 5.25C11.7111 5.25 11.6926 5.25 11.6741 5.25C11.6556 5.25 11.6371 5.25 11.6186 5.25C11.6001 5.25 11.5816 5.25 11.5631 5.25C11.5446 5.25 11.526 5.25 11.5075 5.25C11.489 5.25 11.4705 5.25 11.452 5.25C11.4335 5.25 11.4149 5.25 11.3964 5.25C11.3779 5.25 11.3594 5.25 11.3409 5.25C11.3224 5.25 11.3038 5.25 11.2853 5.25C11.2668 5.25 11.2483 5.25 11.2298 5.25C11.2112 5.25 11.1927 5.25 11.1742 5.25C11.1557 5.25 11.1372 5.25 11.1187 5.25C11.1001 5.25 11.0816 5.25 11.0631 5.25C11.0446 5.25 11.0261 5.25 11.0076 5.25C10.989 5.25 10.9705 5.25 10.952 5.25C10.9335 5.25 10.915 5.25 10.8965 5.25C10.878 5.25 10.8595 5.25 10.841 5.25C10.8225 5.25 10.804 5.25 10.7854 5.25C10.7669 5.25 10.7484 5.25 10.7299 5.25C10.7114 5.25 10.6929 5.25 10.6744 5.25C10.656 5.25 10.6375 5.25 10.619 5.25C10.6005 5.25 10.582 5.25 10.5635 5.25C10.545 5.25 10.5265 5.25 10.508 5.25C10.4896 5.25 10.4711 5.25 10.4526 5.25C10.4341 5.25 10.4157 5.25 10.3972 5.25C10.3787 5.25 10.3603 5.25 10.3418 5.25C10.3233 5.25 10.3049 5.25 10.2864 5.25C10.268 5.25 10.2495 5.25 10.2311 5.25C10.2126 5.25 10.1942 5.25 10.1757 5.25C10.1573 5.25 10.1388 5.25 10.1204 5.25C10.102 5.25 10.0836 5.25 10.0651 5.25C10.0467 5.25 10.0283 5.25 10.0099 5.25C9.99145 5.25 9.97304 5.25 9.95463 5.25C9.93622 5.25 9.91782 5.25 9.89943 5.25C9.88103 5.25 9.86264 5.25 9.84425 5.25C9.82586 5.25 9.80748 5.25 9.78911 5.25C9.77073 5.25 9.75236 5.25 9.73399 5.25C9.71563 5.25 9.69727 5.25 9.67891 5.25C9.66056 5.25 9.64221 5.25 9.62387 5.25C9.60553 5.25 9.58719 5.25 9.56886 5.25C9.55053 5.25 9.53221 5.25 9.51389 5.25C9.49557 5.25 9.47726 5.25 9.45895 5.25C9.44065 5.25 9.42235 5.25 9.40406 5.25C9.38577 5.25 9.36748 5.25 9.34921 5.25C9.33093 5.25 9.31266 5.25 9.29439 5.25C9.27613 5.25 9.25787 5.25 9.23962 5.25C9.22137 5.25 9.20313 5.25 9.1849 5.25C9.16666 5.25 9.14844 5.25 9.13022 5.25C9.112 5.25 9.09379 5.25 9.07559 5.25C9.05738 5.25 9.03919 5.25 9.021 5.25C9.00281 5.25 8.98463 5.25 8.96646 5.25C8.94829 5.25 8.93013 5.25 8.91198 5.25C8.89382 5.25 8.87568 5.25 8.85754 5.25C8.83941 5.25 8.82128 5.25 8.80316 5.25C8.78504 5.25 8.76693 5.25 8.74883 5.25C8.73073 5.25 8.71264 5.25 8.69456 5.25C8.67648 5.25 8.6584 5.25 8.64034 5.25C8.62228 5.25 8.60423 5.25 8.58618 5.25C8.56814 5.25 8.5501 5.25 8.53208 5.25C8.51406 5.25 8.49604 5.25 8.47804 5.25C8.46004 5.25 8.44204 5.25 8.42406 5.25C8.40608 5.25 8.3881 5.25 8.37014 5.25C8.35218 5.25 8.33423 5.25 8.31629 5.25C8.29835 5.25 8.28042 5.25 8.2625 5.25C8.24458 5.25 8.22667 5.25 8.20877 5.25C8.19088 5.25 8.17299 5.25 8.15512 5.25C8.13724 5.25 8.11938 5.25 8.10153 5.25C8.08368 5.25 8.06584 5.25 8.04801 5.25C8.03018 5.25 8.01237 5.25 7.99456 5.25C7.97676 5.25 7.95897 5.25 7.94119 5.25C7.92341 5.25 7.90564 5.25 7.88788 5.25C7.87013 5.25 7.85238 5.25 7.83465 5.25C7.81692 5.25 7.79921 5.25 7.7815 5.25C7.7638 5.25 7.7461 5.25 7.72842 5.25C7.71074 5.25 7.69308 5.25 7.67543 5.25C7.65777 5.25 7.64013 5.25 7.62251 5.25C7.60488 5.25 7.58727 5.25 7.56967 5.25C7.55207 5.25 7.53448 5.25 7.51691 5.25C7.49934 5.25 7.48178 5.25 7.46424 5.25C7.44669 5.25 7.42916 5.25 7.41164 5.25C7.39413 5.25 7.37663 5.25 7.35914 5.25C7.34165 5.25 7.32418 5.25 7.30672 5.25C7.28926 5.25 7.27182 5.25 7.25439 5.25C7.23696 5.25 7.21955 5.25 7.20215 5.25C7.18475 5.25 7.16736 5.25 7.14999 5.25C7.13263 5.25 7.11527 5.25 7.09793 5.25C7.0806 5.25 7.06327 5.25 7.04596 5.25C7.02866 5.25 7.01137 5.25 6.99409 5.25C6.97681 5.25 6.95955 5.25 6.94231 5.25C6.92507 5.25 6.90784 5.25 6.89062 5.25C6.87341 5.25 6.85622 5.25 6.83904 5.25C6.82186 5.25 6.8047 5.25 6.78755 5.25C6.7704 5.25 6.75327 5.25 6.73616 5.25C6.71905 5.25 6.70195 5.25 6.68487 5.25C6.66779 5.25 6.65073 5.25 6.63369 5.25C6.61664 5.25 6.59962 5.25 6.5826 5.25C6.56559 5.25 6.5486 5.25 6.53163 5.25C6.51465 5.25 6.49769 5.25 6.48075 5.25C6.46382 5.25 6.44689 5.25 6.42999 5.25C6.41309 5.25 6.3962 5.25 6.37933 5.25C6.36246 5.25 6.34562 5.25 6.32878 5.25C6.31195 5.25 6.29514 5.25 6.27835 5.25C6.26155 5.25 6.24478 5.25 6.22802 5.25C6.21127 5.25 6.19453 5.25 6.17781 5.25C6.16109 5.25 6.14439 5.25 6.12771 5.25C6.11103 5.25 6.09437 5.25 6.07773 5.25C6.06109 5.25 6.04446 5.25 6.02786 5.25C6.01126 5.25 5.99468 5.25 5.97811 5.25C5.96155 5.25 5.94501 5.25 5.92848 5.25C5.91196 5.25 5.89546 5.25 5.87897 5.25C5.86249 5.25 5.84603 5.25 5.82959 5.25C5.81314 5.25 5.79672 5.25 5.78032 5.25C5.76392 5.25 5.74754 5.25 5.73118 5.25C5.71482 5.25 5.69848 5.25 5.68216 5.25C5.66585 5.25 5.64955 5.25 5.63327 5.25C5.617 5.25 5.60074 5.25 5.58451 5.25C5.56828 5.25 5.55207 5.25 5.53588 5.25C5.51969 5.25 5.50352 5.25 5.48737 5.25C5.47123 5.25 5.4551 5.25 5.439 5.25C5.4229 5.25 5.40682 5.25 5.39076 5.25C5.3747 5.25 5.35866 5.25 5.34265 5.25C5.32664 5.25 5.31065 5.25 5.29468 5.25C5.27871 5.25 5.26276 5.25 5.24684 5.25C5.23092 5.25 5.21502 5.25 5.19914 5.25C5.18326 5.25 5.16741 5.25 5.15158 5.25C5.13575 5.25 5.11994 5.25 5.10416 5.25C5.08837 5.25 5.07261 5.25 5.05688 5.25C5.04114 5.25 5.02543 5.25 5.00974 5.25C4.99405 5.25 4.97838 5.25 4.96274 5.25C4.9471 5.25 4.93148 5.25 4.91589 5.25C4.9003 5.25 4.88473 5.25 4.86918 5.25C4.85364 5.25 4.83812 5.25 4.82262 5.25C4.80713 5.25 4.79166 5.25 4.77621 5.25C4.76077 5.25 4.74535 5.25 4.72995 5.25C4.71455 5.25 4.69918 5.25 4.68384 5.25C4.66849 5.25 4.65317 5.25 4.63788 5.25C4.62258 5.25 4.60731 5.25 4.59207 5.25C4.57683 5.25 4.56161 5.25 4.54642 5.25C4.53123 5.25 4.51606 5.25 4.50092 5.25C4.48578 5.25 4.47066 5.25 4.45558 5.25C4.44049 5.25 4.42543 5.25 4.41039 5.25C4.39536 5.25 4.38035 5.25 4.36537 5.25C4.35039 5.25 4.33543 5.25 4.3205 5.25C4.30557 5.25 4.29067 5.25 4.2758 5.25C4.26092 5.25 4.24608 5.25 4.23126 5.25C4.21644 5.25 4.20164 5.25 4.18688 5.25C4.17211 5.25 4.15738 5.25 4.14267 5.25C4.12795 5.25 4.11327 5.25 4.09862 5.25C4.08396 5.25 4.06934 5.25 4.05474 5.25C4.04014 5.25 4.02557 5.25 4.01103 5.25C3.99648 5.25 3.98197 5.25 3.96749 5.25C3.953 5.25 3.93854 5.25 3.92411 5.25C3.90969 5.25 3.89529 5.25 3.88092 5.25C3.86655 5.25 3.8522 5.25 3.83789 5.25C3.82358 5.25 3.80929 5.25 3.79504 5.25C3.78079 5.25 3.76656 5.25 3.75236 5.25C3.73817 5.25 3.724 5.25 3.70987 5.25C3.69573 5.25 3.68162 5.25 3.66755 5.25C3.65347 5.25 3.63942 5.25 3.62541 5.25C3.61139 5.25 3.5974 5.25 3.58345 5.25C3.56949 5.25 3.55556 5.25 3.54167 5.25C3.52777 5.25 3.51391 5.25 3.50007 5.25C3.48624 5.25 3.47243 5.25 3.45866 5.25C3.44489 5.25 3.43115 5.25 3.41744 5.25C3.40372 5.25 3.39004 5.25 3.3764 5.25C3.36275 5.25 3.34913 5.25 3.33555 5.25C3.32196 5.25 3.30841 5.25 3.29488 5.25C3.28136 5.25 3.26787 5.25 3.25441 5.25C3.24095 5.25 3.22752 5.25 3.21413 5.25C3.20073 5.25 3.18737 5.25 3.17404 5.25C3.16071 5.25 3.14741 5.25 3.13415 5.25C3.12088 5.25 3.10765 5.25 3.09445 5.25C3.08125 5.25 3.06808 5.25 3.05495 5.25C3.04181 5.25 3.02871 5.25 3.01564 5.25C3.00257 5.25 2.98954 5.25 2.97653 5.25C2.96353 5.25 2.95056 5.25 2.93763 5.25C2.92469 5.25 2.91179 5.25 2.89892 5.25C2.88605 5.25 2.87322 5.25 2.86042 5.25C2.84762 5.25 2.83485 5.25 2.82212 5.25C2.80938 5.25 2.79669 5.25 2.78402 5.25C2.77136 5.25 2.75873 5.25 2.74613 5.25C2.73354 5.25 2.72098 5.25 2.70845 5.25C2.69592 5.25 2.68343 5.25 2.67097 5.25C2.65852 5.25 2.6461 5.25 2.63371 5.25C2.62132 5.25 2.60897 5.25 2.59666 5.25C2.58434 5.25 2.57206 5.25 2.55981 5.25C2.54757 5.25 2.53536 5.25 2.52319 5.25C2.51101 5.25 2.49887 5.25 2.48677 5.25C2.47467 5.25 2.4626 5.25 2.45057 5.25C2.43854 5.25 2.42655 5.25 2.41459 5.25C2.40263 5.25 2.39071 5.25 2.37883 5.25C2.36694 5.25 2.35509 5.25 2.34328 5.25C2.33147 5.25 2.31969 5.25 2.30796 5.25C2.29622 5.25 2.28452 5.25 2.27285 5.25C2.26119 5.25 2.24956 5.25 2.23797 5.25C2.22638 5.25 2.21483 5.25 2.20332 5.25C2.1918 5.25 2.18033 5.25 2.16889 5.25C2.15745 5.25 2.14605 5.25 2.13468 5.25C2.12332 5.25 2.11199 5.25 2.10071 5.25C2.08942 5.25 2.07817 5.25 2.06696 5.25C2.05575 5.25 2.04457 5.25 2.03344 5.25C2.02231 5.25 2.01121 5.25 2.00015 5.25C1.9891 5.25 1.97808 5.25 1.9671 5.25C1.95612 5.25 1.94518 5.25 1.93428 5.25C1.92338 5.25 1.91251 5.25 1.90169 5.25C1.89087 5.25 1.88009 5.25 1.86934 5.25C1.8586 5.25 1.84789 5.25 1.83723 5.25C1.82657 5.25 1.81594 5.25 1.80536 5.25C1.79477 5.25 1.78423 5.25 1.77372 5.25C1.76322 5.25 1.75275 5.25 1.74233 5.25C1.7319 5.25 1.72152 5.25 1.71118 5.25C1.70083 5.25 1.69053 5.25 1.68027 5.25C1.67001 5.25 1.65979 5.25 1.64961 5.25C1.63943 5.25 1.62929 5.25 1.61919 5.25C1.60909 5.25 1.59903 5.25 1.58902 5.25C1.579 5.25 1.56903 5.25 1.5591 5.25C1.54916 5.25 1.53927 5.25 1.52942 5.25C1.51957 5.25 1.50977 5.25 1.5 5.25V6.75Z" fill="#1E2644"/>
</svg>
