<svg width="97" height="122" viewBox="0 0 97 122" fill="none" xmlns="http://www.w3.org/2000/svg">
<g id="Frame" clip-path="url(#clip0_80_6181)">
<g id="Group">
<path id="Vector" d="M13.6377 81.6516C25.5069 81.6516 36.713 81.646 47.919 81.6516C55.5087 81.6573 61.7098 78.7983 66.199 72.6565C73.3579 62.8589 70.0477 49.417 59.0287 43.4617C54.5565 41.0434 49.9879 38.8002 45.4533 36.5006C43.084 35.2971 41.2929 33.585 41.8767 30.7543C42.4379 28.0365 44.6371 26.8669 47.2502 26.477C48.0834 26.3527 48.9393 26.3132 49.7838 26.3132C62.8151 26.3019 75.8406 26.3697 88.8718 26.2397C91.1788 26.2171 92.216 27.0082 92.9983 29.0366C99.9872 47.14 97.9919 63.9777 85.5219 79.0695C73.9417 93.0821 61.9705 106.784 50.2486 120.684C48.8939 122.288 48.2931 122.554 46.7854 120.757C36.4296 108.417 25.9434 96.1841 15.5025 83.9117C15.0264 83.3467 14.5616 82.7647 13.6377 81.6516Z" fill="white"/>
<path id="Vector_2" d="M81.5768 12.9279C70.0136 12.9279 59.2781 12.8601 48.5368 12.9505C40.6523 13.0183 34.4683 16.3971 30.5289 23.2452C25.779 31.5059 28.6301 41.7271 36.9907 47.1909C40.709 49.6262 44.8411 51.2761 48.8259 53.1971C50.0956 53.8074 51.3596 54.4571 52.5612 55.1973C55.7808 57.1806 57.0731 59.6384 56.3193 62.6839C55.5314 65.8819 53.1677 67.5544 50.0672 68.0573C46.1335 68.6901 42.1488 68.2494 38.1923 68.272C27.7118 68.3341 17.2257 68.255 6.74514 68.3398C5.05602 68.3511 4.2738 67.82 3.62763 66.2831C-9.25053 35.7322 13.7851 0.587739 47.0291 0.0114148C59.9923 -0.220245 71.2266 3.91008 81.5768 12.9279Z" fill="white"/>
</g>
</g>
<defs>
<clipPath id="clip0_80_6181">
<rect width="97" height="122" fill="white"/>
</clipPath>
</defs>
</svg>
